<?xml version="1.0" encoding="UTF-8"?>
<svg width="19px" height="14px" viewBox="0 0 19 14" version="1.1" xmlns="http://www.w3.org/2000/svg" xmlns:xlink="http://www.w3.org/1999/xlink">
    <!-- Generator: sketchtool 50.2 (55047) - http://www.bohemiancoding.com/sketch -->
    <title>D08D703D-1D22-4955-9CAF-FCAEDA45E8BA</title>
    <desc>Created with sketchtool.</desc>
    <defs></defs>
    <g id="Team" stroke="none" stroke-width="1" fill="none" fill-rule="evenodd">
        <g id="Add-team-mate_popup" transform="translate(-1218.000000, -153.000000)" fill="#FFFFFF">
            <g id="Group-2">
                <g id="Group-5-Copy" transform="translate(1202.000000, 140.000000)">
                    <path d="M27.6666667,19.6666667 C29.5083333,19.6666667 31,18.175 31,16.3333333 C31,14.4916667 29.5083333,13 27.6666667,13 C25.825,13 24.3333333,14.4916667 24.3333333,16.3333333 C24.3333333,18.175 25.825,19.6666667 27.6666667,19.6666667 L27.6666667,19.6666667 Z M20.1666667,18 L20.1666667,15.5 L18.5,15.5 L18.5,18 L16,18 L16,19.6666667 L18.5,19.6666667 L18.5,22.1666667 L20.1666667,22.1666667 L20.1666667,19.6666667 L22.6666667,19.6666667 L22.6666667,18 L20.1666667,18 L20.1666667,18 Z M27.6666667,21.3333333 C25.4416667,21.3333333 21,22.45 21,24.6666667 L21,26.3333333 L34.3333333,26.3333333 L34.3333333,24.6666667 C34.3333333,22.45 29.8916667,21.3333333 27.6666667,21.3333333 L27.6666667,21.3333333 Z" id="Shape" transform="translate(25.166667, 19.666667) scale(-1, 1) translate(-25.166667, -19.666667) "></path>
                </g>
            </g>
        </g>
    </g>
</svg>