<?xml version="1.0" encoding="UTF-8"?>
<svg width="20px" height="14px" viewBox="0 0 20 14" version="1.1" xmlns="http://www.w3.org/2000/svg" xmlns:xlink="http://www.w3.org/1999/xlink">
    <!-- Generator: sketchtool 50.2 (55047) - http://www.bohemiancoding.com/sketch -->
    <title>6CFB042E-90F4-4FB9-90F4-4E1D8C015EB0</title>
    <desc>Created with sketchtool.</desc>
    <defs></defs>
    <g id="Tasks" stroke="none" stroke-width="1" fill="none" fill-rule="evenodd">
        <g id="Tasks-Copy" transform="translate(-1187.000000, -154.000000)" fill="#FFFFFF">
            <g id="Group-6" transform="translate(1171.000000, 140.000000)">
                <path d="M28,18 L16,18 L16,20 L28,20 L28,18 L28,18 Z M28,14 L16,14 L16,16 L28,16 L28,14 L28,14 Z M32,22 L32,18 L30,18 L30,22 L26,22 L26,24 L30,24 L30,28 L32,28 L32,24 L36,24 L36,22 L32,22 L32,22 Z M16,24 L24,24 L24,22 L16,22 L16,24 L16,24 Z" id="Shape"></path>
            </g>
        </g>
    </g>
</svg>