<?xml version="1.0" encoding="UTF-8"?>
<svg width="14px" height="9px" viewBox="0 0 14 9" version="1.1" xmlns="http://www.w3.org/2000/svg" xmlns:xlink="http://www.w3.org/1999/xlink">
    <!-- Generator: sketchtool 51.1 (57501) - http://www.bohemiancoding.com/sketch -->
    <title>13D2637B-4427-43BE-9338-FF36A60464F5</title>
    <desc>Created with sketchtool.</desc>
    <defs></defs>
    <g id="Guests_Updated" stroke="none" stroke-width="1" fill="none" fill-rule="evenodd">
        <g id="Accomodation_status" transform="translate(-627.000000, -152.000000)" fill="#FFFFFF">
            <g id="Group-8" transform="translate(408.000000, 140.000000)">
                <path d="M222.818182,16.8 C223.874545,16.8 224.727273,15.996 224.727273,15 C224.727273,14.004 223.874545,13.2 222.818182,13.2 C221.761818,13.2 220.909091,14.004 220.909091,15 C220.909091,15.996 221.761818,16.8 222.818182,16.8 L222.818182,16.8 Z M230.454545,13.2 L225.363636,13.2 L225.363636,17.4 L220.272727,17.4 L220.272727,12 L219,12 L219,21 L220.272727,21 L220.272727,19.2 L231.727273,19.2 L231.727273,21 L233,21 L233,15.6 C233,14.274 231.860909,13.2 230.454545,13.2 L230.454545,13.2 Z" id="Shape"></path>
            </g>
        </g>
    </g>
</svg>