<?xml version="1.0" encoding="UTF-8"?>
<svg width="35px" height="37px" viewBox="0 0 35 37" version="1.1" xmlns="http://www.w3.org/2000/svg" xmlns:xlink="http://www.w3.org/1999/xlink">
    <!-- Generator: Sketch 51 (57462) - http://www.bohemiancoding.com/sketch -->
    <title>bride</title>
    <desc>Created with Sketch.</desc>
    <defs></defs>
    <g id="Events" stroke="none" stroke-width="1" fill="none" fill-rule="evenodd">
        <g id="Bride-and-groom-info" transform="translate(-755.000000, -440.000000)">
            <rect fill="#FAFAFA" x="0" y="0" width="1440" height="1177"></rect>
            <g id="Group-6" transform="translate(628.000000, 418.000000)" fill="#AEAEAE" fill-rule="nonzero">
                <g id="np_user-women_704141_000000-copy" transform="translate(127.000000, 22.000000)">
                    <path d="M31.6540994,28.2277619 C29.9929456,25.4933661 24.9360778,24.0983549 21.8147518,23.4783 L21.5491943,22.112562 C22.5690729,23.0308901 23.7216615,23.4988137 24.9929298,23.4988137 C27.8829714,23.4988137 30.2870846,21.0597714 30.3887687,20.9574271 L31.1826424,20.1385234 L30.0752547,19.9572011 C29.4622138,19.8548419 27.8264883,19.5887094 28.2079122,12.2188679 C28.5497473,5.55683382 23.6510757,3.37773236 22.7555178,3.03558663 C21.2554241,1.59086317 19.3033207,0.827586207 17.0997553,0.827586207 C14.1023884,0.827586207 11.0202607,2.30158296 9.05687513,4.6733192 C7.29403723,6.80532883 6.55107789,9.50169175 6.96634826,12.268655 C7.41270967,15.2340927 7.07935069,17.4684465 5.97474742,18.9044105 C4.88710355,20.3169408 3.43221083,20.4427186 3.37283483,20.4456385 L1.60717639,20.5567722 L3.10727008,21.5306522 C4.75996226,22.6068765 6.48606081,23.1508657 8.24043709,23.1508657 C10.4835624,23.1508657 12.2181226,22.2647308 13.116501,21.6827835 L12.7690176,23.4784123 C9.64733,24.0984073 4.59017294,25.4934036 2.92967004,28.2278742 C0.672441986,31.9449095 0.457719289,35.802247 0.449257667,35.9662074 L0.418181818,36.5832826 L16.7245228,36.5862069 L16.7245228,27.6836798 L17.8601882,27.6836798 L17.8601882,36.5862069 L34.1636364,36.5862069 L34.1325605,35.9691317 C34.1269108,35.8053585 33.912204,31.9449888 31.6549687,28.2278038 L31.6540994,28.2277619 Z M8.99753467,10.0348078 L9.0866087,8.84081298 C9.14407759,8.84676771 15.1524552,9.24874089 20.8363771,4.28809789 L21.5805855,5.2051658 C16.4687411,9.66557193 11.2218402,10.0556174 9.54098996,10.0556174 C9.22778541,10.05264 9.03813989,10.0377516 8.99790983,10.0347743 L8.99753467,10.0348078 Z M10.1414484,11.96173 C10.2342642,11.9646768 10.3383265,11.9676228 10.448012,11.9676228 C12.4055612,11.9676228 16.3120913,11.4019501 21.1019234,7.74860957 C21.3719252,9.28950199 22.1650826,12.1531634 24.4403698,13.8266496 C24.0325519,15.0051343 22.6909741,18.402112 20.2131495,20.546992 C20.1653368,20.5911854 20.1147104,20.6294897 20.0640869,20.670731 C19.9178395,20.7944701 19.7659617,20.909377 19.6084606,21.0242765 C19.560648,21.056685 19.5156448,21.0920395 19.4706445,21.1244458 C19.2822048,21.2540829 19.0881419,21.3748729 18.8912638,21.4897799 C18.8378265,21.5192416 18.7843863,21.5487041 18.7309475,21.5781681 C18.525631,21.687177 18.3146984,21.7932444 18.0981281,21.8816251 C18.0615648,21.896356 18.0278153,21.9081408 17.9912506,21.9228717 C17.7550026,22.0171505 17.5159322,22.1025897 17.2628217,22.1674082 C17.1868828,22.1526774 17.0631356,22.1232156 16.8971961,22.0760785 C16.885946,22.0731317 16.8746959,22.0701857 16.8662582,22.0672397 C16.7903193,22.04367 16.7059419,22.0142075 16.6159413,21.9818005 C16.5906288,21.9729616 16.5625032,21.9611768 16.5343791,21.952338 C16.4471938,21.9199294 16.3543779,21.8816289 16.2559389,21.84038 C16.225001,21.8285944 16.1996885,21.8168103 16.1687535,21.8020787 C16.0393758,21.7431545 15.9043749,21.6783397 15.7609356,21.6017401 C15.7553109,21.598794 15.7496855,21.595848 15.7440601,21.5929012 C15.6090592,21.5221921 15.4712431,21.439702 15.3278109,21.3483647 C15.2884353,21.324795 15.2490568,21.2953325 15.2068717,21.2717651 C15.0915557,21.1951654 14.9734317,21.1156168 14.8553077,21.0272285 C14.782184,20.9712511 14.7062451,20.9123291 14.6303062,20.8534011 C14.5262439,20.7709034 14.4193664,20.6854642 14.3124889,20.5941344 C14.1831112,20.4821765 14.0537336,20.3613865 13.9215479,20.2317494 C12.4590741,18.7821943 10.9065277,16.2838065 10.1415225,11.9616146 L10.1414484,11.96173 Z M15.0838223,27.2517519 L12.3627812,29.6651835 C11.4010714,28.9744083 10.0874654,27.7533547 10.1431623,26.7989445 C10.1724835,26.3202792 10.8586047,25.2311055 11.7059782,24.6320584 C11.9640079,24.5747329 12.2132403,24.5202764 12.4448853,24.474416 L12.1370061,25.9792245 L12.4683426,26.1941961 C12.4859359,26.205662 12.612021,26.2859169 12.8377961,26.400568 C13.2805489,26.6212703 14.119125,26.9680924 15.2890601,27.1830566 L15.0838223,27.2517519 Z M17.289538,26.7813889 C15.4313638,26.7813889 14.1381352,26.2177994 13.5731895,25.9081082 L14.2405825,22.1859631 C15.7193379,23.3409831 16.9683293,23.5701638 17.200929,23.6011599 L17.212006,23.6011599 C17.2147751,23.6011599 17.223083,23.6042563 17.2258521,23.6042563 L17.2923142,23.6135464 L17.2950833,23.6135464 L17.328315,23.6166428 L17.4003139,23.5980634 C17.6467802,23.560903 18.8707748,23.3224599 20.3384708,22.1674082 L21.0086287,25.9081827 C20.5655479,26.1497222 19.6655623,26.5460915 18.4027468,26.7071046 C18.053819,26.7535543 17.688288,26.7814238 17.2895153,26.7814238 L17.289538,26.7813889 Z M22.205139,29.6651835 L19.4640728,27.2533327 L19.2927581,27.2017119 C21.1270418,26.8862522 22.1667565,26.2324051 22.2228633,26.19511 L22.5566382,25.9800241 L22.2464932,24.474416 C22.3439693,24.4944908 22.4532566,24.5174332 22.5566382,24.537508 C23.593404,25.0078233 24.405667,26.238108 24.4381817,26.797315 C24.5031642,27.803917 23.1060613,29.0226902 22.2051768,29.6650771 L22.205139,29.6651835 Z" id="bride"></path>
                </g>
            </g>
        </g>
    </g>
</svg>