<?xml version="1.0" encoding="UTF-8"?>
<svg width="16px" height="19px" viewBox="0 0 16 19" version="1.1" xmlns="http://www.w3.org/2000/svg" xmlns:xlink="http://www.w3.org/1999/xlink">
    <!-- Generator: sketchtool 50.2 (55047) - http://www.bohemiancoding.com/sketch -->
    <title>041717E1-359A-4084-9E08-333659782C23</title>
    <desc>Created with sketchtool.</desc>
    <defs></defs>
    <g id="Events" stroke="none" stroke-width="1" fill="none" fill-rule="evenodd">
        <g id="Project-basic-info" transform="translate(-844.000000, -621.000000)" fill="#E0E0E0">
            <path d="M849.777778,630 L848,630 L848,631.9 L849.777778,631.9 L849.777778,630 L849.777778,630 Z M852.777778,630 L851,630 L851,631.9 L852.777778,631.9 L852.777778,630 L852.777778,630 Z M856.777778,630 L855,630 L855,631.9 L856.777778,631.9 L856.777778,630 L856.777778,630 Z M858.222222,622.9 L857.333333,622.9 L857.333333,621 L855.555556,621 L855.555556,622.9 L848.444444,622.9 L848.444444,621 L846.666667,621 L846.666667,622.9 L845.777778,622.9 C844.791111,622.9 844.008889,623.755 844.008889,624.8 L844,638.1 C844,639.145 844.791111,640 845.777778,640 L858.222222,640 C859.2,640 860,639.145 860,638.1 L860,624.8 C860,623.755 859.2,622.9 858.222222,622.9 L858.222222,622.9 Z M858.444444,638.45 L846,638.45 L846,628 L858.444444,628 L858.444444,638.45 L858.444444,638.45 Z" id="Shape"></path>
        </g>
    </g>
</svg>