<?xml version="1.0" encoding="UTF-8"?>
<svg width="12px" height="14px" viewBox="0 0 12 14" version="1.1" xmlns="http://www.w3.org/2000/svg" xmlns:xlink="http://www.w3.org/1999/xlink">
    <!-- Generator: sketchtool 50.2 (55047) - http://www.bohemiancoding.com/sketch -->
    <title>B537AF0C-B72F-452B-8B93-237315A488F1</title>
    <desc>Created with sketchtool.</desc>
    <defs></defs>
    <g id="Projects-page" stroke="none" stroke-width="1" fill="none" fill-rule="evenodd">
        <g id="Projects-Hover-states" transform="translate(-1088.000000, -21.000000)" fill="#FFFFFF">
            <path d="M1092,27.3 L1090.66667,27.3 L1090.66667,28.7 L1092,28.7 L1092,27.3 L1092,27.3 Z M1094.66667,27.3 L1093.33333,27.3 L1093.33333,28.7 L1094.66667,28.7 L1094.66667,27.3 L1094.66667,27.3 Z M1097.33333,27.3 L1096,27.3 L1096,28.7 L1097.33333,28.7 L1097.33333,27.3 L1097.33333,27.3 Z M1098.66667,22.4 L1098,22.4 L1098,21 L1096.66667,21 L1096.66667,22.4 L1091.33333,22.4 L1091.33333,21 L1090,21 L1090,22.4 L1089.33333,22.4 C1088.59333,22.4 1088.00667,23.03 1088.00667,23.8 L1088,33.6 C1088,34.37 1088.59333,35 1089.33333,35 L1098.66667,35 C1099.4,35 1100,34.37 1100,33.6 L1100,23.8 C1100,23.03 1099.4,22.4 1098.66667,22.4 L1098.66667,22.4 Z M1098.66667,33.6 L1089.33333,33.6 L1089.33333,25.9 L1098.66667,25.9 L1098.66667,33.6 L1098.66667,33.6 Z" id="Shape"></path>
        </g>
    </g>
</svg>