<?xml version="1.0" encoding="UTF-8"?>
<svg width="14px" height="16px" viewBox="0 0 14 16" version="1.1" xmlns="http://www.w3.org/2000/svg" xmlns:xlink="http://www.w3.org/1999/xlink">
    <!-- Generator: Sketch 51 (57462) - http://www.bohemiancoding.com/sketch -->
    <title>Caterer</title>
    <desc>Created with Sketch.</desc>
    <defs></defs>
    <g id="Event-manager" stroke="none" stroke-width="1" fill="none" fill-rule="evenodd">
        <g transform="translate(-477.000000, -848.000000)">
            <rect fill="#FAFAFA" x="0" y="0" width="1440" height="1294"></rect>
            <g id="Group-11-Copy" transform="translate(450.000000, 798.000000)" fill="#FFB74D" fill-rule="nonzero">
                <g id="Group-9" transform="translate(18.000000, 42.000000)">
                    <path d="M14.2034753,11.7938038 C14.2034753,13.5267013 13.4074657,14.9828552 12.3207985,15.4353267 L12.6681566,22.9062912 L12.6681566,22.9072791 C12.6833475,23.1908262 12.5770107,23.468455 12.3764878,23.6749378 C12.1749537,23.8814231 11.8964398,23.9979908 11.604771,23.9979908 C11.3120911,23.9979908 11.0335927,23.8814105 10.8320431,23.6749378 C10.6315201,23.4684525 10.5251816,23.1908262 10.5403743,22.9072791 L10.8877324,15.4363146 C9.80106514,14.9778995 9,13.5265763 9,11.79378 C9,9.69930993 10.1636419,8 11.5926116,8 C13.0215814,8 14.2033716,9.69930993 14.2033716,11.79378 L14.2034753,11.7938038 Z M22.6242779,8.00002377 C22.5260412,7.99903587 22.4318568,8.0355892 22.3609722,8.10277198 C22.2910936,8.16896586 22.2515951,8.26084615 22.250584,8.35667703 L22.250584,11.391701 C22.2353929,11.5596542 22.0905706,11.6890828 21.9173816,11.6890828 C21.7441925,11.6890828 21.5993718,11.5596592 21.5841791,11.391701 L21.5841791,8.35667703 C21.5841791,8.26084362 21.5436696,8.16896333 21.4737909,8.10277198 C21.4039122,8.03559173 21.3087141,7.99903486 21.2114964,8.00002377 L21.1021219,8.00002377 C21.0038852,7.99903587 20.9097008,8.0355892 20.8398273,8.10277198 C20.768935,8.16896586 20.7294391,8.26084615 20.7284254,8.35667703 L20.7284254,11.391701 C20.7132345,11.5596542 20.5694257,11.6890828 20.395223,11.6890828 C20.2220443,11.6890828 20.0782243,11.5596592 20.0630576,11.391701 L20.0630576,8.35667703 C20.0620449,8.26084362 20.022548,8.16896333 19.9516556,8.10277198 C19.881777,8.03559173 19.7875926,7.99903486 19.6893611,8.00002377 L19.579984,8.00002377 C19.4827611,7.99903587 19.387563,8.0355892 19.3176895,8.10277198 C19.2478108,8.16896586 19.2073013,8.26084615 19.2073013,8.35667703 L19.2073013,11.391701 C19.1921101,11.5596542 19.0472879,11.6890828 18.8740988,11.6890828 C18.7009202,11.6890828 18.5560891,11.5596592 18.5408964,11.391701 L18.5408964,8.35667703 C18.5246926,8.16797694 18.3626543,8.02274852 18.1682085,8.02274852 C17.9747763,8.02274852 17.8127355,8.16797947 17.7965317,8.35667703 L17.7965317,12.8310611 C17.7924804,13.9760998 18.5601336,14.9887609 19.684264,15.3217283 L19.3318244,22.9092883 C19.3166335,23.1938218 19.4229703,23.4714506 19.6234932,23.676947 C19.8250273,23.8834323 20.1035412,24 20.39521,24 C20.6878899,24 20.9663883,23.8834197 21.1679379,23.676947 C21.3684609,23.4714506 21.4747994,23.1938218 21.4596067,22.9092883 L21.1071671,15.3217283 C22.2201753,15.0253329 22.9938884,14.0423139 22.999981,12.9170282 L22.999981,8.36449222 C23.0009937,8.26668351 22.9614963,8.17381431 22.8906039,8.10565526 C22.8197115,8.0374962 22.7235023,7.99994284 22.6242649,8.00290705 L22.6242779,8.00002377 Z" id="Caterer"></path>
                </g>
            </g>
        </g>
    </g>
</svg>