<?xml version="1.0" encoding="UTF-8"?>
<svg width="20px" height="14px" viewBox="0 0 20 14" version="1.1" xmlns="http://www.w3.org/2000/svg" xmlns:xlink="http://www.w3.org/1999/xlink">
    <!-- Generator: Sketch 50.2 (55047) - http://www.bohemiancoding.com/sketch -->
    <title>Clients</title>
    <desc>Created with Sketch.</desc>
    <defs></defs>
    <g id="Tasks" stroke="none" stroke-width="1" fill="none" fill-rule="evenodd">
        <g id="Tasks-Copy" transform="translate(-52.000000, -509.000000)" fill="#747474">
            <g id="Client-tab" transform="translate(52.000000, 508.000000)">
                <path d="M14.5,8 C15.88,8 16.99,6.88 16.99,5.5 C16.99,4.12 15.88,3 14.5,3 C13.12,3 12,4.12 12,5.5 C12,6.88 13.12,8 14.5,8 L14.5,8 Z M7,7 C8.66,7 9.99,5.66 9.99,4 C9.99,2.34 8.66,1 7,1 C5.34,1 4,2.34 4,4 C4,5.66 5.34,7 7,7 L7,7 Z M14.5,10 C12.67,10 9,10.92 9,12.75 L9,15 L20,15 L20,12.75 C20,10.92 16.33,10 14.5,10 L14.5,10 Z M7,9 C4.67,9 0,10.17 0,12.5 L0,15 L7,15 L7,12.75 C7,11.9 7.33,10.41 9.37,9.28 C8.5,9.1 7.66,9 7,9 L7,9 Z" id="Clients"></path>
            </g>
        </g>
    </g>
</svg>