<?xml version="1.0"?>
<svg xmlns="http://www.w3.org/2000/svg" height="512px" viewBox="0 0 512 512" width="512px"><path d="m497 482h-467v-467c0-8.285156-6.714844-15-15-15s-15 6.714844-15 15v477.976562c0 10.488282 8.535156 19.023438 19.027344 19.023438h477.972656c8.285156 0 15-6.714844 15-15s-6.714844-15-15-15zm0 0" fill="#747474"/><path d="m177.195312 206.367188c0-9.210938-7.5-16.699219-16.699218-16.699219h-94.371094c-9.210938 0-16.699219 7.488281-16.699219 16.699219v245.890624h127.769531zm0 0" fill="#747474"/><path d="m325.195312 119.148438c0-9.210938-7.492187-16.699219-16.699218-16.699219h-94.371094c-9.210938 0-16.699219 7.488281-16.699219 16.699219v333.109374h127.769531zm0 0" fill="#747474"/><path d="m473.164062 257.699219c0-9.210938-7.488281-16.703125-16.699218-16.703125h-94.359375c-9.210938 0-16.699219 7.492187-16.699219 16.703125v194.558593h127.757812zm0 0" fill="#747474"/></svg>
