<?xml version="1.0" encoding="UTF-8"?>
<svg width="12px" height="14px" viewBox="0 0 12 14" version="1.1" xmlns="http://www.w3.org/2000/svg" xmlns:xlink="http://www.w3.org/1999/xlink">
    <!-- Generator: sketchtool 50.2 (55047) - http://www.bohemiancoding.com/sketch -->
    <title>AA972B33-2FB0-479D-81EC-E6CA296836AE</title>
    <desc>Created with sketchtool.</desc>
    <defs></defs>
    <g id="Event-manager" stroke="none" stroke-width="1" fill="none" fill-rule="evenodd">
        <g id="Event-manager-Copy-2" transform="translate(-797.000000, -1171.000000)" fill="#747474">
            <path d="M801,1177.3 L799.666667,1177.3 L799.666667,1178.7 L801,1178.7 L801,1177.3 L801,1177.3 Z M803.666667,1177.3 L802.333333,1177.3 L802.333333,1178.7 L803.666667,1178.7 L803.666667,1177.3 L803.666667,1177.3 Z M806.333333,1177.3 L805,1177.3 L805,1178.7 L806.333333,1178.7 L806.333333,1177.3 L806.333333,1177.3 Z M807.666667,1172.4 L807,1172.4 L807,1171 L805.666667,1171 L805.666667,1172.4 L800.333333,1172.4 L800.333333,1171 L799,1171 L799,1172.4 L798.333333,1172.4 C797.593333,1172.4 797.006667,1173.03 797.006667,1173.8 L797,1183.6 C797,1184.37 797.593333,1185 798.333333,1185 L807.666667,1185 C808.4,1185 809,1184.37 809,1183.6 L809,1173.8 C809,1173.03 808.4,1172.4 807.666667,1172.4 L807.666667,1172.4 Z M807.666667,1183.6 L798.333333,1183.6 L798.333333,1175.9 L807.666667,1175.9 L807.666667,1183.6 L807.666667,1183.6 Z" id="Shape-Copy-3"></path>
        </g>
    </g>
</svg>