<?xml version="1.0" encoding="UTF-8"?>
<svg width="18px" height="26px" viewBox="0 0 18 26" version="1.1" xmlns="http://www.w3.org/2000/svg" xmlns:xlink="http://www.w3.org/1999/xlink">
    <!-- Generator: sketchtool 50.2 (55047) - http://www.bohemiancoding.com/sketch -->
    <title>30256CB4-D6A8-4BDA-8C43-55C7132EA993</title>
    <desc>Created with sketchtool.</desc>
    <defs>
        <filter x="-1.2%" y="-4.7%" width="102.4%" height="109.5%" filterUnits="objectBoundingBox" id="filter-1">
            <feOffset dx="0" dy="0" in="SourceAlpha" result="shadowOffsetOuter1"></feOffset>
            <feGaussianBlur stdDeviation="3" in="shadowOffsetOuter1" result="shadowBlurOuter1"></feGaussianBlur>
            <feColorMatrix values="0 0 0 0 0   0 0 0 0 0   0 0 0 0 0  0 0 0 0.1 0" type="matrix" in="shadowBlurOuter1" result="shadowMatrixOuter1"></feColorMatrix>
            <feMerge>
                <feMergeNode in="shadowMatrixOuter1"></feMergeNode>
                <feMergeNode in="SourceGraphic"></feMergeNode>
            </feMerge>
        </filter>
    </defs>
    <g id="Jobs" stroke="none" stroke-width="1" fill="none" fill-rule="evenodd">
        <g transform="translate(-586.000000, -405.000000)" fill="#66BB6A" id="Group-19">
            <g filter="url(#filter-1)" transform="translate(272.000000, 278.000000)">
                <g id="Group-17" transform="translate(32.000000, 123.000000)">
                    <g id="Group-16" transform="translate(275.000000, 0.000000)">
                        <g id="Group-15" transform="translate(0.000000, 1.000000)">
                            <path d="M15.488,22.76 L15.488,21.16 C14.9973309,21.1066664 14.5040025,20.976001 14.008,20.768 C13.5119975,20.559999 13.0826685,20.285335 12.72,19.944 L13.552,18.696 C13.9253352,18.9946682 14.3039981,19.2346658 14.688,19.416 C15.0720019,19.5973342 15.4826645,19.688 15.92,19.688 C16.4426693,19.688 16.8319987,19.5680012 17.088,19.328 C17.3440013,19.0879988 17.472,18.7493355 17.472,18.312 C17.472,17.9599982 17.3653344,17.6666678 17.152,17.432 C16.9386656,17.1973322 16.669335,16.984001 16.344,16.792 C16.018665,16.599999 15.6693352,16.4160009 15.296,16.24 C14.9226648,16.0639991 14.573335,15.8560012 14.248,15.616 C13.922665,15.3759988 13.6533344,15.0880017 13.44,14.752 C13.2266656,14.4159983 13.12,13.9973358 13.12,13.496 C13.12,12.7493296 13.3333312,12.1280025 13.76,11.632 C14.1866688,11.1359975 14.762663,10.8240006 15.488,10.696 L15.488,9.064 L16.768,9.064 L16.768,10.664 C17.2800026,10.7280003 17.7199982,10.8746655 18.088,11.104 C18.4560018,11.3333345 18.7893318,11.6026651 19.088,11.912 L18.144,12.984 C17.8453318,12.7066653 17.5573347,12.4960007 17.28,12.352 C17.0026653,12.2079993 16.6720019,12.136 16.288,12.136 C15.8506645,12.136 15.5093346,12.2453322 15.264,12.464 C15.0186654,12.6826678 14.896,12.9999979 14.896,13.416 C14.896,13.7360016 15.0026656,13.999999 15.216,14.208 C15.4293344,14.416001 15.698665,14.6079991 16.024,14.784 C16.349335,14.9600009 16.6986648,15.1359991 17.072,15.312 C17.4453352,15.4880009 17.794665,15.6986654 18.12,15.944 C18.445335,16.1893346 18.7146656,16.4906649 18.928,16.848 C19.1413344,17.2053351 19.248,17.650664 19.248,18.184 C19.248,18.9520038 19.0346688,19.5946641 18.608,20.112 C18.1813312,20.6293359 17.568004,20.9626659 16.768,21.112 L16.768,22.76 L15.488,22.76 Z" id="$"></path>
                        </g>
                    </g>
                </g>
            </g>
        </g>
    </g>
</svg>