<?xml version="1.0" encoding="UTF-8"?>
<svg width="4px" height="16px" viewBox="0 0 4 16" version="1.1" xmlns="http://www.w3.org/2000/svg" xmlns:xlink="http://www.w3.org/1999/xlink">
    <!-- Generator: sketchtool 50.2 (55047) - http://www.bohemiancoding.com/sketch -->
    <title>9BECA159-240E-415F-B6EB-21566441330C</title>
    <desc>Created with sketchtool.</desc>
    <defs></defs>
    <g id="Projects-page" stroke="none" stroke-width="1" fill="none" fill-rule="evenodd">
        <g transform="translate(-1268.000000, -335.000000)" fill="#747474" id="Group-6">
            <g transform="translate(104.000000, 311.000000)">
                <path d="M1166,28 C1167.1,28 1168,27.1 1168,26 C1168,24.9 1167.1,24 1166,24 C1164.9,24 1164,24.9 1164,26 C1164,27.1 1164.9,28 1166,28 L1166,28 Z M1166,30 C1164.9,30 1164,30.9 1164,32 C1164,33.1 1164.9,34 1166,34 C1167.1,34 1168,33.1 1168,32 C1168,30.9 1167.1,30 1166,30 L1166,30 Z M1166,36 C1164.9,36 1164,36.9 1164,38 C1164,39.1 1164.9,40 1166,40 C1167.1,40 1168,39.1 1168,38 C1168,36.9 1167.1,36 1166,36 L1166,36 Z" id="Shape"></path>
            </g>
        </g>
    </g>
</svg>