<?xml version="1.0" encoding="UTF-8"?>
<svg width="15px" height="11px" viewBox="0 0 15 11" version="1.1" xmlns="http://www.w3.org/2000/svg" xmlns:xlink="http://www.w3.org/1999/xlink">
    <!-- Generator: Sketch 51 (57462) - http://www.bohemiancoding.com/sketch -->
    <title>engagemen</title>
    <desc>Created with Sketch.</desc>
    <defs></defs>
    <g id="Events" stroke="none" stroke-width="1" fill="none" fill-rule="evenodd">
        <g id="Event-flow_expanded-Copy" transform="translate(-429.000000, -1256.000000)">
            <rect fill="#FAFAFA" x="0" y="0" width="1440" height="1731"></rect>
            <g id="Group-20-Copy" transform="translate(388.000000, 1221.000000)" fill="#E13467" fill-rule="nonzero">
                <g id="engagemen" transform="translate(41.000000, 35.000000)">
                    <path d="M4.29606383,10.6706111 C1.93292553,10.6706111 0,8.81940278 0,6.55752778 C0,4.29504167 1.93356383,2.44444444 4.29606383,2.44444444 C6.65920213,2.44444444 8.59212766,4.29565278 8.59212766,6.55752778 C8.59212766,8.81940278 6.65920213,10.6706111 4.29606383,10.6706111 Z M4.29606383,3.03172222 C2.27090426,3.03172222 0.613404255,4.61801389 0.613404255,6.55752778 C0.613404255,8.49643056 2.27026596,10.0833333 4.29606383,10.0833333 C6.3212234,10.0833333 7.9787234,8.49704167 7.9787234,6.55752778 C7.9787234,4.61801389 6.3212234,3.03172222 4.29606383,3.03172222 Z" id="Shape"></path>
                    <path d="M10.5460638,10.6706111 C8.18292553,10.6706111 6.25,8.81940278 6.25,6.55752778 C6.25,4.29504167 8.18356383,2.44444444 10.5460638,2.44444444 C12.9092021,2.44444444 14.8421277,4.29565278 14.8421277,6.55752778 C14.8421277,8.81940278 12.9092021,10.6706111 10.5460638,10.6706111 Z M10.5460638,3.03172222 C8.52090426,3.03172222 6.86340426,4.61801389 6.86340426,6.55752778 C6.86340426,8.49643056 8.52026596,10.0833333 10.5460638,10.0833333 C12.5712234,10.0833333 14.2287234,8.49704167 14.2287234,6.55752778 C14.2287234,4.61801389 12.5712234,3.03172222 10.5460638,3.03172222 Z" id="Shape"></path>
                    <path d="M4.31796809,3.27890972 C4.22571489,3.27890972 4.1646266,3.24966653 4.10290957,3.19058583 L2.84501596,1.95643166 C2.38499468,1.51600389 2.38499468,0.781356664 2.84501596,0.311014997 C3.21340957,-0.041091947 3.85732447,-0.100171114 4.31796809,0.16420472 C4.77798936,-0.100177225 5.4225266,-0.0416938915 5.82146277,0.340250553 C6.03652128,0.546149164 6.18985638,0.839757497 6.18985638,1.16262278 C6.18985638,1.48608389 6.06705904,1.75046583 5.82146277,1.984995 L4.56356915,3.21914916 C4.47131596,3.24958555 4.41022766,3.27882722 4.31796809,3.27882722 L4.31796809,3.27890972 Z M3.67343085,0.576118053 C3.52008936,0.576118053 3.36674468,0.634602914 3.24395213,0.752163886 C2.99835106,0.987304164 2.99835106,1.34000694 3.24395213,1.54529444 L4.28742553,2.54432361 L5.33089894,1.54529444 C5.45369628,1.42772736 5.5147766,1.2809125 5.5147766,1.13410833 C5.5147766,0.987298053 5.45368989,0.84048472 5.33089894,0.72292222 C5.11584043,0.517023609 4.71690426,0.517023609 4.50248404,0.72292222 C4.44139734,0.781407081 4.3796867,0.811247636 4.28742553,0.811247636 C4.19516436,0.811247636 4.13408404,0.782004442 4.07236702,0.72292222 C3.98011383,0.634598331 3.82676596,0.576111942 3.67343085,0.576111942 L3.67343085,0.576118053 Z" id="Shape"></path>
                    <path d="M10.5679681,3.27890972 C10.4757149,3.27890972 10.4146266,3.24966653 10.3529096,3.19058583 L9.09501596,1.95643166 C8.63499468,1.51600389 8.63499468,0.781356664 9.09501596,0.311014997 C9.46340957,-0.041091947 10.1079468,-0.100171114 10.5679681,0.16420472 C11.0279894,-0.100177225 11.6725266,-0.0416938915 12.0714628,0.340250553 C12.2865213,0.546149164 12.4398564,0.839757497 12.4398564,1.16262278 C12.4398564,1.48608389 12.317059,1.75046583 12.0714628,1.984995 L10.8135691,3.21914916 C10.721316,3.24958555 10.6602277,3.27882722 10.5679681,3.27882722 L10.5679681,3.27890972 Z M9.92343085,0.576118053 C9.77008936,0.576118053 9.61674468,0.634602914 9.49395213,0.752163886 C9.24835106,0.987304164 9.24835106,1.34000694 9.49395213,1.54529444 L10.5374255,2.54432361 L11.5808989,1.54529444 C11.7036963,1.42772736 11.7647766,1.2809125 11.7647766,1.13410833 C11.7647766,0.987298053 11.7036899,0.84048472 11.5808989,0.72292222 C11.3658404,0.517023609 10.9669043,0.517023609 10.752484,0.72292222 C10.6913973,0.781407081 10.6296867,0.811247636 10.5374255,0.811247636 C10.4451723,0.811247636 10.384084,0.782004442 10.322367,0.72292222 C10.2307362,0.634598331 10.076766,0.576111942 9.92343085,0.576111942 L9.92343085,0.576118053 Z" id="Shape"></path>
                </g>
            </g>
        </g>
    </g>
</svg>