<?xml version="1.0" encoding="UTF-8"?>
<svg width="12px" height="14px" viewBox="0 0 12 14" version="1.1" xmlns="http://www.w3.org/2000/svg" xmlns:xlink="http://www.w3.org/1999/xlink">
    <!-- Generator: sketchtool 50.2 (55047) - http://www.bohemiancoding.com/sketch -->
    <title>64EB536D-2F29-42EB-B596-BD6346C732CC</title>
    <desc>Created with sketchtool.</desc>
    <defs></defs>
    <g id="Events" stroke="none" stroke-width="1" fill="none" fill-rule="evenodd">
        <g id="Event-Flow-default" transform="translate(-839.000000, -793.000000)" fill="#D8D8D8">
            <g id="Group-20-Copy-2" transform="translate(388.000000, 760.000000)">
                <path d="M455,39.3 L453.666667,39.3 L453.666667,40.7 L455,40.7 L455,39.3 L455,39.3 Z M457.666667,39.3 L456.333333,39.3 L456.333333,40.7 L457.666667,40.7 L457.666667,39.3 L457.666667,39.3 Z M460.333333,39.3 L459,39.3 L459,40.7 L460.333333,40.7 L460.333333,39.3 L460.333333,39.3 Z M461.666667,34.4 L461,34.4 L461,33 L459.666667,33 L459.666667,34.4 L454.333333,34.4 L454.333333,33 L453,33 L453,34.4 L452.333333,34.4 C451.593333,34.4 451.006667,35.03 451.006667,35.8 L451,45.6 C451,46.37 451.593333,47 452.333333,47 L461.666667,47 C462.4,47 463,46.37 463,45.6 L463,35.8 C463,35.03 462.4,34.4 461.666667,34.4 L461.666667,34.4 Z M461.666667,45.6 L452.333333,45.6 L452.333333,37.9 L461.666667,37.9 L461.666667,45.6 L461.666667,45.6 Z" id="Shape"></path>
            </g>
        </g>
    </g>
</svg>