<?xml version="1.0" encoding="UTF-8"?>
<svg width="19px" height="14px" viewBox="0 0 19 14" version="1.1" xmlns="http://www.w3.org/2000/svg" xmlns:xlink="http://www.w3.org/1999/xlink">
    <!-- Generator: sketchtool 50.2 (55047) - http://www.bohemiancoding.com/sketch -->
    <title>6C140C05-AF91-4DF6-80AB-084BA7A6E1D9</title>
    <desc>Created with sketchtool.</desc>
    <defs></defs>
    <g id="Projects-page" stroke="none" stroke-width="1" fill="none" fill-rule="evenodd">
        <g id="Projects-Hover-states" transform="translate(-1092.000000, -399.000000)" fill="#747474">
            <g id="Group-7" transform="translate(104.000000, 375.000000)">
                <path d="M999.666667,30.6666667 C1001.50833,30.6666667 1003,29.175 1003,27.3333333 C1003,25.4916667 1001.50833,24 999.666667,24 C997.825,24 996.333333,25.4916667 996.333333,27.3333333 C996.333333,29.175 997.825,30.6666667 999.666667,30.6666667 L999.666667,30.6666667 Z M992.166667,29 L992.166667,26.5 L990.5,26.5 L990.5,29 L988,29 L988,30.6666667 L990.5,30.6666667 L990.5,33.1666667 L992.166667,33.1666667 L992.166667,30.6666667 L994.666667,30.6666667 L994.666667,29 L992.166667,29 L992.166667,29 Z M999.666667,32.3333333 C997.441667,32.3333333 993,33.45 993,35.6666667 L993,37.3333333 L1006.33333,37.3333333 L1006.33333,35.6666667 C1006.33333,33.45 1001.89167,32.3333333 999.666667,32.3333333 L999.666667,32.3333333 Z" id="Shape-Copy" transform="translate(997.166667, 30.666667) scale(-1, 1) translate(-997.166667, -30.666667) "></path>
            </g>
        </g>
    </g>
</svg>