<?xml version="1.0" encoding="UTF-8"?>
<svg width="17px" height="12px" viewBox="0 0 17 12" version="1.1" xmlns="http://www.w3.org/2000/svg" xmlns:xlink="http://www.w3.org/1999/xlink">
    <!-- Generator: sketchtool 50.2 (55047) - http://www.bohemiancoding.com/sketch -->
    <title>5F33D715-1228-444E-B218-1FEFFC328769</title>
    <desc>Created with sketchtool.</desc>
    <defs></defs>
    <g id="Projects-page" stroke="none" stroke-width="1" fill="none" fill-rule="evenodd">
        <g id="Projects-Hover-states" transform="translate(-1140.000000, -403.000000)" fill="#747474">
            <g id="Group-7" transform="translate(104.000000, 375.000000)">
                <path d="M1046,31.3333333 L1036,31.3333333 L1036,33 L1046,33 L1046,31.3333333 L1046,31.3333333 Z M1046,28 L1036,28 L1036,29.6666667 L1046,29.6666667 L1046,28 L1046,28 Z M1049.33333,34.6666667 L1049.33333,31.3333333 L1047.66667,31.3333333 L1047.66667,34.6666667 L1044.33333,34.6666667 L1044.33333,36.3333333 L1047.66667,36.3333333 L1047.66667,39.6666667 L1049.33333,39.6666667 L1049.33333,36.3333333 L1052.66667,36.3333333 L1052.66667,34.6666667 L1049.33333,34.6666667 L1049.33333,34.6666667 Z M1036,36.3333333 L1042.66667,36.3333333 L1042.66667,34.6666667 L1036,34.6666667 L1036,36.3333333 L1036,36.3333333 Z" id="Shape-Copy-3"></path>
            </g>
        </g>
    </g>
</svg>