<?xml version="1.0" encoding="UTF-8"?>
<svg width="16px" height="13px" viewBox="0 0 16 13" version="1.1" xmlns="http://www.w3.org/2000/svg" xmlns:xlink="http://www.w3.org/1999/xlink">
    <!-- Generator: sketchtool 50.2 (55047) - http://www.bohemiancoding.com/sketch -->
    <title>C653D8F5-5E62-42DF-B0CB-E51A14EB4E61</title>
    <desc>Created with sketchtool.</desc>
    <defs></defs>
    <g id="Projects-page" stroke="none" stroke-width="1" fill="none" fill-rule="evenodd">
        <g id="Projects-Hover-states" transform="translate(-909.000000, -110.000000)" fill="#747474">
            <g id="Group-15" transform="translate(877.000000, 47.000000)">
                <path d="M46.4,69.5 C46.4,68.60625 47.12,67.875 48,67.875 L48,64.625 C48,63.73125 47.28,63 46.4,63 L33.6,63 C32.72,63 32.008,63.73125 32.008,64.625 L32.008,67.875 C32.888,67.875 33.6,68.60625 33.6,69.5 C33.6,70.39375 32.888,71.125 32,71.125 L32,74.375 C32,75.26875 32.72,76 33.6,76 L46.4,76 C47.28,76 48,75.26875 48,74.375 L48,71.125 C47.12,71.125 46.4,70.39375 46.4,69.5 L46.4,69.5 Z M42.864,73.4 L40,71.53125 L37.136,73.4 L38,70.0525 L35.368,67.866875 L38.76,67.66375 L40,64.4625 L41.232,67.671875 L44.624,67.875 L41.992,70.060625 L42.864,73.4 L42.864,73.4 Z" id="Shape"></path>
            </g>
        </g>
    </g>
</svg>