<?xml version="1.0" encoding="UTF-8"?>
<svg width="12px" height="11px" viewBox="0 0 12 11" version="1.1" xmlns="http://www.w3.org/2000/svg" xmlns:xlink="http://www.w3.org/1999/xlink">
    <!-- Generator: sketchtool 51.1 (57501) - http://www.bohemiancoding.com/sketch -->
    <title>C2622723-FCA1-4B5C-B98B-264023FAE507</title>
    <desc>Created with sketchtool.</desc>
    <defs></defs>
    <g id="Guests_Updated" stroke="none" stroke-width="1" fill="none" fill-rule="evenodd">
        <g id="Send-reminder" transform="translate(-818.000000, -151.000000)" fill="#747474">
            <g id="Group-8" transform="translate(408.000000, 140.000000)">
                <path d="M413.363854,17.1835846 L415.139919,15.469062 L410.734274,11.2221347 C409.755242,12.1672426 409.755242,13.7000138 410.734274,14.6511801 L413.363854,17.1835846 L413.363854,17.1835846 Z M417.618879,16.0870171 C418.579084,16.5171624 419.928391,16.2142432 420.926251,15.2509601 C422.124937,14.0938088 422.357144,12.4338115 421.434594,11.5432291 C420.51832,10.658705 418.798738,10.8768068 417.593776,12.0339582 C416.595916,12.9972412 416.282123,14.2997938 416.727709,15.2267266 L410.602481,21.1397095 L411.487376,21.9939416 L415.811435,17.8318317 L420.129218,22 L421.014112,21.1457678 L416.696329,16.9775996 L417.618879,16.0870171 L417.618879,16.0870171 Z" id="Shape"></path>
            </g>
        </g>
    </g>
</svg>