<?xml version="1.0" encoding="UTF-8"?>
<svg width="16px" height="15px" viewBox="0 0 16 15" version="1.1" xmlns="http://www.w3.org/2000/svg" xmlns:xlink="http://www.w3.org/1999/xlink">
    <!-- Generator: sketchtool 51.1 (57501) - http://www.bohemiancoding.com/sketch -->
    <title>0404D358-BC92-434F-BA7A-437D5E9D896B</title>
    <desc>Created with sketchtool.</desc>
    <defs></defs>
    <g id="Guests_Updated" stroke="none" stroke-width="1" fill="none" fill-rule="evenodd">
        <g id="Food-restriction-detailsdetails" transform="translate(-497.000000, -231.000000)" fill="#26A69A">
            <g id="Group-23" transform="translate(433.000000, 182.000000)">
                <path d="M68.485139,57.4321609 L70.8532255,55.0941754 L64.9790322,49.302911 C63.6736559,50.5916945 63.6736559,52.681837 64.9790322,53.978882 L68.485139,57.4321609 L68.485139,57.4321609 Z M74.1585052,55.9368415 C75.4387781,56.5234033 77.2378544,56.1103316 78.5683341,54.7967638 C80.1665833,53.2188301 80.4761917,50.9551975 79.2461256,49.7407669 C78.0244273,48.5345977 75.731651,48.8320093 74.125034,50.409943 C72.7945543,51.7235108 72.3761645,53.4997188 72.9702781,54.7637181 L64.8033085,62.8268765 L65.9831678,63.9917386 L71.7485798,58.3161342 L77.5056239,64 L78.6854832,62.835138 L72.9284391,57.1512722 L74.1585052,55.9368415 L74.1585052,55.9368415 Z" id="Shape"></path>
            </g>
        </g>
    </g>
</svg>