<?xml version="1.0" encoding="UTF-8"?>
<svg width="32px" height="39px" viewBox="0 0 32 39" version="1.1" xmlns="http://www.w3.org/2000/svg" xmlns:xlink="http://www.w3.org/1999/xlink">
    <!-- Generator: sketchtool 50.2 (55047) - http://www.bohemiancoding.com/sketch -->
    <title>BA6F8F72-12B9-4136-A08A-DC99DE6DCF07</title>
    <desc>Created with sketchtool.</desc>
    <defs></defs>
    <g id="Events" stroke="none" stroke-width="1" fill="none" fill-rule="evenodd">
        <g id="Bride-and-groom-info" transform="translate(-652.000000, -439.000000)" fill="#E21958" fill-rule="nonzero">
            <g id="Group-6" transform="translate(628.000000, 418.000000)">
                <g id="np_man_542126_000000" transform="translate(24.000000, 21.000000)">
                    <path d="M29.7441447,29.7807392 C27.486516,28.2916424 25.4320965,27.123294 24.1016852,26.4392885 C22.8925867,27.9283852 21.2395073,29.2162092 19.1439784,29.9411133 C18.1363964,30.3027764 17.0878662,30.4647447 16,30.4647447 C14.9121338,30.4647447 13.8242676,30.2634719 12.8166856,29.9018249 C10.7212373,29.1376323 9.10910602,27.8481981 7.90008816,26.4 C6.56975742,27.0840055 4.55459331,28.2523539 2.25762866,29.7414507 C0.847013779,30.6676277 0,32.2778102 0,33.9681797 C0,36.7451004 2.25762866,39 5.03791027,39 L26.9620897,39 C29.7423713,39 32,36.7451004 32,33.9681797 C32,32.3170986 31.154558,30.7462448 29.7439432,29.7809002 L29.7441447,29.7807392 Z" id="Shape"></path>
                    <path d="M5.1319269,17.5685157 C5.37237822,18.391323 5.81111914,19.995139 6.77138953,20.9834952 C7.49119261,23.7813691 9.649003,27.0307175 13.126026,28.3467977 C13.9660627,28.6762416 14.8451115,28.8 15.7241602,28.8 C16.6032089,28.8 17.4822576,28.6360803 18.2816835,28.3467977 C21.7588664,27.1125868 23.9184355,23.8213576 24.63632,20.9834952 C25.5949915,20.0369376 26.0759261,18.4331217 26.2757826,17.5685157 C26.6349007,16.2105546 27.0345977,14.2772865 26.0353313,12.9192431 C25.9947364,12.8774609 25.9557005,12.8372832 25.9151056,12.7553234 C26.1945929,11.0679102 26.1945929,9.71159461 25.8745108,8.39362187 C25.4747978,6.66605566 24.5957491,5.06059404 23.2763766,3.66247987 C22.5971844,2.92162418 21.8367705,2.2643657 20.9983326,1.68741322 C20.2395175,1.15225935 19.4400916,0.740855697 18.6406657,0.453202263 C17.9208626,0.205718282 17.1620476,0.0417986111 16.4016337,0 C16.0846733,0.0417821549 15.805182,0.0417821549 15.5241438,0.0417821549 C13.8456692,0.0417821549 12.3264402,0.453185807 10.9274449,1.27599311 C9.76891688,1.9348972 9.00850297,2.71590589 8.56977804,3.33301137 C8.01081945,3.58049535 7.29101637,3.99191546 6.65083611,4.81472277 C5.33146361,6.54228898 4.97236149,9.21633044 5.4923081,12.7951308 C5.45171325,12.836913 5.41267728,12.8770906 5.37208244,12.9590505 C4.37280006,14.2768175 4.77251301,16.2502797 5.13163111,17.5680056 L5.1319269,17.5685157 Z M7.6113863,13.8240843 L7.73161196,13.8240843 L7.73161196,13.7823021 C7.6113863,13.3708984 7.01180888,10.9442751 9.08999645,9.46256375 C10.7294591,9.87396741 13.2462117,9.91576602 16.6049996,8.43405462 C23.0799497,5.59602767 23.6795191,13.8242653 23.6795191,13.8242653 L23.7997448,13.8242653 C24.478937,13.8242653 25.1581292,14.3594191 24.439925,17.0335429 C23.8809664,19.1323598 23.320409,19.7076666 22.920696,19.7076666 C22.5615779,22.1760885 20.681664,25.3035791 17.6448848,26.4139576 C17.0047046,26.6196594 16.3661232,26.7434014 15.7259429,26.7434014 C15.0857626,26.7434014 14.4065704,26.6196594 13.807001,26.4139576 C10.8091538,25.3034968 8.89013198,22.1760885 8.53118975,19.7076666 C8.1314768,19.6658845 7.61153019,19.0905611 7.01196077,17.0335429 C6.29215769,14.3594191 6.97136592,13.8242653 7.61153019,13.8242653 L7.6113863,13.8240843 Z" id="Shape"></path>
                </g>
            </g>
        </g>
    </g>
</svg>