<?xml version="1.0" encoding="UTF-8"?>
<svg width="16px" height="18px" viewBox="0 0 16 18" version="1.1" xmlns="http://www.w3.org/2000/svg" xmlns:xlink="http://www.w3.org/1999/xlink">
    <!-- Generator: Sketch 50.2 (55047) - http://www.bohemiancoding.com/sketch -->
    <title>Guests</title>
    <desc>Created with Sketch.</desc>
    <defs></defs>
    <g id="Tasks" stroke="none" stroke-width="1" fill="none" fill-rule="evenodd">
        <g id="Tasks-Copy" transform="translate(-54.000000, -463.000000)" fill="#747474">
            <g id="Guests-tba" transform="translate(54.000000, 463.000000)">
                <path d="M1.41176471,18 L1.41176471,11.25 L0,11.25 L0,6.3 C0,5.31 0.847058824,4.5 1.88235294,4.5 L4.70588235,4.5 C5.74117647,4.5 6.58823529,5.31 6.58823529,6.3 L6.58823529,11.25 L5.17647059,11.25 L5.17647059,18 L1.41176471,18 L1.41176471,18 Z M13.1764706,18 L13.1764706,12.6 L16,12.6 L13.6094118,5.733 C13.3458824,4.995 12.6305882,4.5 11.8211765,4.5 L11.7082353,4.5 C10.8988235,4.5 10.1741176,4.995 9.92,5.733 L7.52941176,12.6 L10.3529412,12.6 L10.3529412,18 L13.1764706,18 L13.1764706,18 Z M3.29411765,3.6 C4.33882353,3.6 5.17647059,2.799 5.17647059,1.8 C5.17647059,0.801 4.33882353,0 3.29411765,0 C2.24941176,0 1.41176471,0.801 1.41176471,1.8 C1.41176471,2.799 2.24941176,3.6 3.29411765,3.6 L3.29411765,3.6 Z M11.7647059,3.6 C12.8094118,3.6 13.6470588,2.799 13.6470588,1.8 C13.6470588,0.801 12.8094118,0 11.7647059,0 C10.72,0 9.88235294,0.801 9.88235294,1.8 C9.88235294,2.799 10.72,3.6 11.7647059,3.6 L11.7647059,3.6 Z" id="Guests"></path>
            </g>
        </g>
    </g>
</svg>