<?xml version="1.0" encoding="UTF-8"?>
<svg width="42px" height="47px" viewBox="0 0 42 47" version="1.1" xmlns="http://www.w3.org/2000/svg" xmlns:xlink="http://www.w3.org/1999/xlink">
    <!-- Generator: sketchtool 50.2 (55047) - http://www.bohemiancoding.com/sketch -->
    <title>9C006B2F-A353-4F3B-8544-686ED20AF459</title>
    <desc>Created with sketchtool.</desc>
    <defs></defs>
    <g id="Registration" stroke="none" stroke-width="1" fill="none" fill-rule="evenodd">
        <g id="Activity-selected" transform="translate(-1125.000000, -298.000000)" fill="#BBBDBF" fill-rule="nonzero">
            <g id="np_guest-house_465538_000000" transform="translate(1125.000000, 298.000000)">
                <path d="M41.9983523,47 L0,47 L0,17.819859 L21,0 L42,17.819859 L41.9983523,47 Z M2.21012779,44.8222337 L39.7865251,44.8222337 L39.7886705,18.8177538 L21.0004976,2.87341303 L2.21012779,18.8177538 L2.21012779,44.8222337 Z" id="Shape"></path>
                <path d="M30.6923077,19.9160655 C30.6923077,23.1014245 25.8461538,23.1014245 25.8461538,19.9160655 C25.8461538,16.7285431 30.6923077,16.7285431 30.6923077,19.9160655" id="Shape"></path>
                <path d="M11.7741717,42.3660608 C11.4226832,42.1097128 10.9055475,42.2038386 10.6469822,42.5523131 C10.388417,42.9007876 10.4833569,43.4134889 10.8348454,43.6678375 C11.1863339,43.9241856 11.7034696,43.8300597 11.960018,43.4815852 C12.2206053,43.1110802 12.1499032,42.6224089 11.7741717,42.3660608 Z" id="Shape"></path>
                <path d="M24.8151662,22.3558347 C24.2148618,22.2460559 23.9020477,22.3030553 23.565966,22.6387343 L17.674931,29.1983274 C17.3980356,29.5044507 17.3367389,29.9034688 17.4593322,30.2708211 L16.723751,31.3137515 L16.2333725,30.9464046 C15.6817136,30.547392 14.8848249,30.6698392 14.4853254,31.252528 L9.11651307,38.791439 C8.71913471,39.3424405 8.83961765,40.1404874 9.42300165,40.537403 L11.5409497,42.0384294 C12.0926085,42.4374421 12.8916075,42.3149949 13.2889967,41.7323061 L18.6578091,34.1933951 C19.0572978,33.6423936 18.9347045,32.8443467 18.3513205,32.447431 L17.7383542,32.0188605 L18.4739354,31.0076012 C18.7508308,31.0076012 19.0573032,30.885154 19.2729344,30.6698121 L23.1388754,26.4094545 L22.3103319,30.7289387 C22.1877387,31.3116113 22.2490353,31.8942839 22.4329252,32.4749027 L22.9845841,34.098398 L22.2490028,36.4587057 L18.9368311,42.1589634 C18.7212323,42.557976 18.8755344,43.0477539 19.2433196,43.2631282 L19.8266874,43.598804 C20.1944726,43.8141459 20.6848294,43.7212512 20.9300592,43.3539097 L23.7518255,39.1547865 L23.4453369,43.6895909 C23.4453369,44.1181615 23.7814132,44.5171471 24.2126271,44.5467104 L24.8869008,44.607934 C25.3159827,44.6396018 25.7154443,44.3313685 25.7767518,43.9027926 L26.6666027,37.6809886 C26.6983083,37.4656467 26.6983083,37.2819759 26.6666027,37.0687527 L26.3601141,33.75842 L27.3112725,31.4910178 L27.4655746,30.6317906 L29.2749292,33.3277795 C29.5201157,33.6655686 29.8900058,33.878781 30.287395,33.878781 C30.5325815,33.878781 30.7481803,33.8175574 30.9616688,33.6634392 C31.5133277,33.2960922 31.6676515,32.529711 31.2998608,31.9787095 L28.968446,28.5459081 C28.968446,28.5142408 28.9388539,28.5142408 28.9388539,28.5142408 L28.2032727,26.7366057 L28.664058,24.4375324 C28.7866513,23.732391 28.3575694,23.088484 27.6515922,22.9365059" id="Shape"></path>
            </g>
        </g>
    </g>
</svg>