<?xml version="1.0" encoding="UTF-8"?>
<svg width="16px" height="16px" viewBox="0 0 16 16" version="1.1" xmlns="http://www.w3.org/2000/svg" xmlns:xlink="http://www.w3.org/1999/xlink">
    <!-- Generator: Sketch 50.2 (55047) - http://www.bohemiancoding.com/sketch -->
    <title>Items</title>
    <desc>Created with Sketch.</desc>
    <defs></defs>
    <g id="Tasks" stroke="none" stroke-width="1" fill="none" fill-rule="evenodd">
        <g id="Tasks-Copy" transform="translate(-52.000000, -395.000000)" fill="#747474">
            <path d="M56.8,407.8 C55.92,407.8 55.208,408.52 55.208,409.4 C55.208,410.28 55.92,411 56.8,411 C57.68,411 58.4,410.28 58.4,409.4 C58.4,408.52 57.68,407.8 56.8,407.8 L56.8,407.8 Z M52,395 L52,396.6 L53.6,396.6 L56.48,402.672 L55.4,404.632 C55.272,404.856 55.2,405.12 55.2,405.4 C55.2,406.28 55.92,407 56.8,407 L66.4,407 L66.4,405.4 L57.136,405.4 C57.024,405.4 56.936,405.312 56.936,405.2 L56.96,405.104 L57.68,403.8 L63.64,403.8 C64.24,403.8 64.768,403.472 65.04,402.976 L67.904,397.784 C67.968,397.672 68,397.536 68,397.4 C68,396.96 67.64,396.6 67.2,396.6 L55.368,396.6 L54.616,395 L52,395 L52,395 Z M64.8,407.8 C63.92,407.8 63.208,408.52 63.208,409.4 C63.208,410.28 63.92,411 64.8,411 C65.68,411 66.4,410.28 66.4,409.4 C66.4,408.52 65.68,407.8 64.8,407.8 L64.8,407.8 Z" id="Items"></path>
        </g>
    </g>
</svg>