<?xml version="1.0" encoding="UTF-8"?>
<svg width="16px" height="15px" viewBox="0 0 16 15" version="1.1" xmlns="http://www.w3.org/2000/svg" xmlns:xlink="http://www.w3.org/1999/xlink">
    <!-- Generator: sketchtool 51.1 (57501) - http://www.bohemiancoding.com/sketch -->
    <title>419F8D93-B249-4AE5-881E-3E185AE37E58</title>
    <desc>Created with sketchtool.</desc>
    <defs></defs>
    <g id="Guests_Updated" stroke="none" stroke-width="1" fill="none" fill-rule="evenodd">
        <g id="Invitations_GP" transform="translate(-52.000000, -579.000000)" fill="#747474">
            <g id="Jobs-tab" transform="translate(52.000000, 578.000000)">
                <path d="M14.4,4.15789474 L11.2,4.15789474 L11.2,2.57894737 C11.2,1.70263158 10.488,1 9.6,1 L6.4,1 C5.512,1 4.8,1.70263158 4.8,2.57894737 L4.8,4.15789474 L1.6,4.15789474 C0.712,4.15789474 0.008,4.86052632 0.008,5.73684211 L0,14.4210526 C0,15.2973684 0.712,16 1.6,16 L14.4,16 C15.288,16 16,15.2973684 16,14.4210526 L16,5.73684211 C16,4.86052632 15.288,4.15789474 14.4,4.15789474 L14.4,4.15789474 Z M9.6,4.15789474 L6.4,4.15789474 L6.4,2.57894737 L9.6,2.57894737 L9.6,4.15789474 L9.6,4.15789474 Z" id="Shape"></path>
            </g>
        </g>
    </g>
</svg>