<?xml version="1.0" encoding="UTF-8"?>
<svg width="20px" height="20px" viewBox="0 0 20 20" version="1.1" xmlns="http://www.w3.org/2000/svg" xmlns:xlink="http://www.w3.org/1999/xlink">
    <!-- Generator: Sketch 51 (57462) - http://www.bohemiancoding.com/sketch -->
    <title>Mehendi</title>
    <desc>Created with Sketch.</desc>
    <defs></defs>
    <g id="Events" stroke="none" stroke-width="1" fill="none" fill-rule="evenodd">
        <g id="Event-flow_expanded-Copy" transform="translate(-426.000000, -446.000000)">
            <rect fill="#FAFAFA" x="0" y="0" width="1440" height="1731"></rect>
            <path d="M446,456.011502 L445.902345,455.913735 C445.853518,455.864851 445.289614,455.374107 444.406888,454.907306 C445.142166,454.220061 445.534706,453.582676 445.583529,453.532816 L445.657248,453.410129 L445.534701,453.336325 C445.485874,453.311405 444.824325,452.968263 443.843954,452.747819 C444.359041,451.889008 444.604133,451.177814 444.628054,451.127954 L444.676882,451.005266 L444.554335,450.980346 C444.505508,450.955426 443.770235,450.832739 442.764963,450.832739 C443.034957,449.87617 443.083779,449.115116 443.1077,449.066238 L443.1077,448.91863 L442.960262,448.91863 C442.911435,448.91863 442.15126,448.967514 441.195791,449.261762 C441.220683,448.255334 441.073245,447.51921 441.048353,447.470331 L441.023461,447.347644 L440.900915,447.396527 C440.852088,447.421448 440.140736,447.641902 439.282911,448.18153 C439.037819,447.200031 438.719002,446.537716 438.695081,446.488838 L438.621362,446.36615 L438.498816,446.439954 C438.449988,446.464874 437.837261,446.881825 437.125904,447.617949 C436.635719,446.734207 436.145534,446.170631 436.120632,446.120771 L436,446 L435.902345,446.097767 C435.853518,446.146651 435.363337,446.711204 434.897073,447.594945 C434.210617,446.858821 433.573965,446.465829 433.524162,446.41695 L433.401616,446.343147 L433.327897,446.465834 C433.303005,446.514717 432.960257,447.177028 432.740066,448.158526 C431.882242,447.642847 431.171865,447.397472 431.122062,447.373524 L430.999516,447.32464 L430.974624,447.447327 C430.949733,447.496211 430.827186,448.23233 430.827186,449.238758 C429.871717,448.968454 429.111538,448.919575 429.062715,448.895626 L428.915277,448.895626 L428.915277,449.043234 C428.915277,449.092117 428.964104,449.853166 429.258015,450.809735 C428.252743,450.784814 427.517464,450.932422 427.468642,450.957342 L427.346096,450.982262 L427.394923,451.10495 C427.419815,451.153833 427.640016,451.866004 428.179024,452.724815 C427.198653,452.970189 426.537099,453.289373 426.488276,453.313321 L426.36573,453.387125 L426.439449,453.509812 C426.46434,453.558696 426.880812,454.172127 427.61609,454.884303 C426.733364,455.375052 426.170435,455.865801 426.120632,455.890731 L426,456.011502 L426.097655,456.109269 C426.146482,456.158153 426.710386,456.648897 427.593112,457.115697 C426.857834,457.802943 426.465294,458.440328 426.416471,458.490188 L426.342752,458.612875 L426.465299,458.686679 C426.514126,458.711599 427.175675,459.054741 428.156046,459.275185 C427.640959,460.133996 427.395867,460.84519 427.371946,460.89505 L427.323118,461.017738 L427.445665,461.042658 C427.494492,461.042658 428.13212,461.190265 429.038767,461.190265 L429.235032,461.190265 C428.965038,462.146834 428.916216,462.907887 428.892295,462.956766 L428.892295,463.104374 L429.039733,463.104374 C429.08856,463.104374 429.848735,463.05549 430.804204,462.761242 C430.779312,463.76767 430.92675,464.503794 430.951642,464.552673 L430.976534,464.67536 L431.09908,464.626476 C431.147907,464.601556 431.859259,464.381102 432.717084,463.841474 C432.962177,464.822972 433.280993,465.485288 433.304914,465.534166 L433.378633,465.656853 L433.50118,465.58305 C433.550007,465.558129 434.162734,465.141179 434.874091,464.405055 C435.364276,465.288796 435.854462,465.852373 435.879363,465.902233 L435.977018,466 L436.074672,465.902233 C436.1235,465.853349 436.61368,465.288796 437.079945,464.405055 C437.7664,465.141179 438.403053,465.534171 438.452856,465.58305 L438.575402,465.656853 L438.649121,465.534166 C438.674013,465.485283 439.01676,464.822972 439.236951,463.841474 C440.094776,464.357153 440.805153,464.602528 440.854955,464.626476 L440.977502,464.67536 L441.002393,464.552673 C441.027285,464.503789 441.149831,463.76767 441.149831,462.761242 C442.105301,463.031546 442.86548,463.080425 442.914303,463.104374 L443.061741,463.104374 L443.061741,462.956766 C443.061741,462.907883 443.012913,462.146834 442.719003,461.190265 L442.915268,461.190265 C443.821915,461.190265 444.459548,461.067578 444.508371,461.042658 L444.630917,461.017738 L444.58209,460.89505 C444.557198,460.846167 444.336997,460.133996 443.797989,459.275185 C444.77836,459.029811 445.439914,458.710627 445.488737,458.686679 L445.611283,458.612875 L445.537564,458.490188 C445.512672,458.441304 445.096201,457.827873 444.360923,457.115697 C445.243649,456.624948 445.806578,456.134199 445.856381,456.109269 L446,456.011502 Z M446,453.582731 C445.826513,453.832326 445.365762,454.387932 444.672922,455 C444.182881,454.750406 443.606091,454.527948 443,454.360818 C443.432592,453.91588 443.807737,453.443827 444.124279,453 C445.01989,453.193163 445.711576,453.470969 445.999971,453.582759 L446,453.582731 Z M440.523719,460.719174 C440.404649,460.156285 440.238141,459.562889 440,459 C440.476281,459.156289 440.952562,459.21856 441.404649,459.21856 C441.666984,459.811957 441.856735,460.437111 442,461 C441.547914,460.969475 441.047438,460.907202 440.523719,460.719168 L440.523719,460.719174 Z M440.999994,461.999976 C440.437107,461.856722 439.811954,461.666964 439.21856,461.404632 C439.21856,460.952551 439.156288,460.476276 439,460 C439.562887,460.238138 440.156282,460.404644 440.719169,460.547907 C440.875457,461.047449 440.937729,461.547895 441,462 L440.999994,461.999976 Z M431.476281,460.687423 C430.952562,460.875457 430.452086,460.937728 430,461 C430.143256,460.437111 430.333016,459.811957 430.595351,459.21856 C431.047438,459.21856 431.523719,459.156289 432,459 C431.761859,459.531131 431.595351,460.124559 431.476281,460.687417 L431.476281,460.687423 Z M431.280826,460.547914 C431.843715,460.428844 432.437111,460.238141 433,460 C432.843711,460.476281 432.78144,460.952562 432.78144,461.404649 C432.188043,461.666984 431.562889,461.856735 431,462 C431.030525,461.572085 431.092798,461.071633 431.280832,460.54789 L431.280826,460.547914 Z M431.476281,451.280826 C431.595351,451.843715 431.761859,452.437111 432,453 C431.523719,452.843711 431.047438,452.78144 430.595351,452.78144 C430.333016,452.188043 430.143265,451.562889 430,451 C430.452086,451.030525 430.952562,451.092798 431.476281,451.280832 L431.476281,451.280826 Z M431,450 C431.562893,450.143256 432.188046,450.333016 432.78144,450.595351 C432.78144,451.047438 432.843712,451.523719 433,452 C432.437113,451.761859 431.843718,451.595351 431.280831,451.476281 C431.124543,450.952562 431.062271,450.452086 431,450 Z M440.523719,451.280832 C441.024195,451.092798 441.547914,451.030526 442,451 C441.856744,451.562889 441.666984,452.188043 441.404649,452.78144 C440.952562,452.78144 440.476281,452.843711 440,453 C440.238141,452.437111 440.404649,451.843715 440.523719,451.280826 L440.523719,451.280832 Z M440.719174,451.476281 C440.156285,451.595351 439.562889,451.761859 439,452 C439.156289,451.523719 439.21856,451.047438 439.21856,450.595351 C439.811957,450.333016 440.437111,450.143265 441,450 C440.969475,450.452086 440.907202,450.952562 440.719168,451.476281 L440.719174,451.476281 Z M438,455.782915 C438.37123,455.609932 438.796404,455.348763 439.194606,455.045204 C439.778423,454.958713 440.389211,455.001112 441,455.131696 C440.416183,455.565848 439.832366,455.827034 439.274458,456 C438.82234,455.869416 438.398202,455.782924 438,455.782924 L438,455.782915 Z M441,456.858339 C440.389211,457.029339 439.778423,457.029339 439.194606,456.943839 C438.769432,456.643752 438.37123,456.38557 438,456.214587 C438.398202,456.171 438.823375,456.129087 439.274458,456 C439.831331,456.171 440.442093,456.429174 441,456.858348 L441,456.858339 Z M439.371657,454.813807 C438.886171,454.837421 438.428571,454.90645 438,455 C438.371657,454.813807 438.743314,454.604911 439.113829,454.348772 C439.685257,454.186193 440.342629,454.046317 441,454 C440.485486,454.326056 439.914057,454.604911 439.371657,454.813802 L439.371657,454.813807 Z M438,456 C437.654982,456.073804 437.309964,456.147608 437,456.196491 C437.309978,456.122687 437.619963,456.048884 438,456 Z M438,456 L437,456 L438,456 Z M437,455.368062 C437.320312,455.245375 437.64064,455.122687 438,455 C437.640624,455.146651 437.27968,455.269348 437,455.368062 Z M437,456 C437.286239,455.667292 437.618957,455.334602 438,455 L437,456 Z M437,457 C437.307803,457.097767 437.653137,457.220454 438,457.368062 C437.65316,457.245375 437.306312,457.122687 437,457 Z M438,458 C437.618967,457.667292 437.286258,457.334602 437,457 L438,458 Z M437,456 C437.309978,456.048884 437.654982,456.122687 438,456.196491 C437.619928,456.147608 437.309964,456.073804 437,456 Z M439.342629,457.162574 C439.914057,457.371475 440.456457,457.651228 441,458 C440.314743,457.953678 439.685257,457.813807 439.113829,457.651228 C438.742171,457.395089 438.342629,457.162574 438,457 C438.370543,457.046322 438.828114,457.116257 439.342629,457.162579 L439.342629,457.162574 Z M440,457.139872 L440.054839,457.139872 C440.57741,457.139872 441.127949,457.09355 441.651621,457 C441.70646,457.023614 441.734417,457.046322 441.789256,457.069936 C442.256993,457.302451 442.643031,457.558589 443,457.837421 C442.504295,457.930064 442.00859,458 441.486019,458 L441.348384,458 C440.935481,457.628511 440.467743,457.372396 440.000006,457.139881 L440,457.139872 Z M441.5,455.999975 C441.000351,455.772625 440.499649,455.613662 440,455.499987 C440.499649,455.386313 441.000351,455.22735 441.5,455 C441.552434,455 441.604867,455.02309 441.631597,455.02309 C442.105559,455.136764 442.57952,455.295727 443,455.500888 C442.578467,455.682945 442.131246,455.865011 441.631597,455.978686 C441.605895,455.977798 441.552434,455.977798 441.5,456 L441.5,455.999975 Z M441.817221,454.952602 C441.762382,454.976765 441.734425,455 441.679586,455 C441.101079,454.881042 440.55054,454.856879 440,454.856879 C440.467738,454.618963 440.935477,454.356874 441.348381,454 L441.486016,454 C442.008588,454 442.532262,454.07156 443,454.166356 C442.669896,454.452593 442.256992,454.714681 441.817193,454.952598 L441.817221,454.952602 Z M441,453.85765 C441.285364,453.589679 441.530895,453.303558 441.73496,453 C442.18374,453 442.612603,453.053734 443,453.124914 C442.775202,453.411035 442.510571,453.714593 442.204473,454 C441.81628,453.92882 441.40815,453.875785 441.00002,453.857639 L441,453.85765 Z M441,453.00001 C440.795853,453.258769 440.570964,453.517528 440.306225,453.758761 C440.285492,453.77628 440.244822,453.810647 440.224885,453.827494 C439.795848,453.845014 439.387554,453.896227 439,454 C439.28548,453.758768 439.551035,453.482482 439.795848,453.171833 C439.836519,453.171833 439.857252,453.154314 439.897922,453.137467 C440.24481,453.051888 440.63318,453.016847 441,453 L441,453.00001 Z M438.966511,454.428571 C438.614573,454.600446 438.284961,454.800229 438,455 C438.219742,454.685257 438.461809,454.314743 438.68155,453.914057 C439.077261,453.571429 439.516744,453.2288 440,453 C439.669531,453.571429 439.31845,454.029029 438.966533,454.428571 L438.966511,454.428571 Z M438.085943,453.310756 C437.6864,453.532978 437.314743,453.7552 437,454 C437.199777,453.710933 437.399543,453.3776 437.571429,453.022578 C437.970971,452.644978 438.4576,452.289067 439,452 C438.742189,452.466156 438.428571,452.9106 438.085943,453.310756 Z M438.00001,451.999988 C438.086263,451.612437 438.154997,451.204144 438.172516,450.77511 C438.190036,450.754377 438.206883,450.713707 438.24125,450.69377 C438.482482,450.408292 438.724404,450.183405 439,450 C438.98248,450.367626 438.948114,450.735253 438.861861,451.122804 C438.861861,451.163474 438.844341,451.184207 438.827494,451.224877 C438.517518,451.448969 438.24125,451.714502 438,452 L438.00001,451.999988 Z M438,451.664073 C437.667298,452.100873 437.381037,452.536582 437.143121,453 C437.143121,452.454545 437.095723,451.909091 437,451.335927 C437.024163,451.281595 437.047398,451.253896 437.047398,451.199564 C437.285314,450.736145 437.547402,450.353673 437.832712,450 C437.927507,450.491127 437.999067,450.982255 437.999067,451.5 C437.999997,451.582031 437.999997,451.636364 437.999997,451.664062 L438,451.664073 Z M437.162574,453.657371 C437.371475,453.085943 437.651228,452.543543 438,452 C437.953678,452.685257 437.813807,453.314743 437.651228,453.886171 C437.395089,454.257829 437.186198,454.629486 437,455 C437.046322,454.629457 437.116257,454.143971 437.162579,453.657371 L437.162574,453.657371 Z M437.367639,454 C437.245093,454.345341 437.122546,454.692189 437,455 C437.098611,454.692197 437.221157,454.345364 437.367639,454 Z M436.974202,452.805394 C436.664461,453.230568 436.397973,453.62877 436.22149,454 C436.176501,453.601798 436.13324,453.176625 436,452.725542 C436.176501,452.167634 436.44298,451.583817 436.88596,451 C437.017472,451.610789 437.017472,452.221577 436.974211,452.805394 L436.974202,452.805394 Z M436.196265,458 C436.122546,457.654982 436.048827,457.309964 436,457 C436.073719,457.309978 436.147438,457.619963 436.196265,458 Z M436,455 C436.048827,454.690022 436.122546,454.378692 436.196265,454 C436.147438,454.380072 436.073719,454.690036 436,455 Z M435.499101,453 C435.385628,452.500351 435.226947,451.999649 435,451.5 C435,451.447566 435.023049,451.420836 435.023049,451.368403 C435.136522,450.894441 435.295203,450.42048 435.5,450 C435.681734,450.421533 435.863478,450.868754 435.976951,451.368403 C435.976951,451.420836 436,451.447566 436,451.5 C435.771283,451.973961 435.612602,452.500351 435.499129,453 L435.499101,453 Z M436,457 L436,458 L436,457 Z M436,454 L436,455 L436,454 Z M435.999991,452.725542 C435.869407,453.176625 435.782915,453.601798 435.782915,454 C435.609932,453.62877 435.348763,453.203596 435.045204,452.805394 C434.958713,452.221577 435.001112,451.610789 435.131696,451 C435.565848,451.557907 435.827034,452.141724 436,452.725542 L435.999991,452.725542 Z M436.196265,457 C436.147438,457.309978 436.073719,457.621308 436,458 C436.048827,457.619928 436.122546,457.309964 436.196265,457 Z M436,454 C436.073719,454.345018 436.147438,454.690036 436.196265,455 C436.122546,454.690022 436.048827,454.380037 436,454 Z M435.367639,455 C435.245093,454.679688 435.122546,454.35936 435,454 C435.146482,454.359376 435.269038,454.72032 435.367639,455 Z M435,456.196491 C434.690022,456.147608 434.345018,456.073804 434,456 C434.380072,456.048884 434.690036,456.122687 435,456.196491 Z M434,455 C434.345341,455.122687 434.692189,455.245375 435,455.368062 C434.692197,455.269338 434.345364,455.146651 434,455 Z M435,456 L434,456 L435,456 Z M433.657371,454.837426 C433.085943,454.628525 432.543543,454.348772 432,454 C432.685257,454.046322 433.314743,454.186193 433.886171,454.348772 C434.257829,454.604911 434.629486,454.813802 435,455 C434.629457,454.953678 434.143971,454.883743 433.657371,454.837421 L433.657371,454.837426 Z M432.725542,456.000009 C433.176625,456.130593 433.601798,456.217085 434,456.217085 C433.62877,456.390068 433.203596,456.651237 432.805394,456.954796 C432.221577,457.041287 431.610789,456.998888 431,456.868304 C431.557907,456.434152 432.168669,456.172966 432.725542,456 L432.725542,456.000009 Z M432.725542,456 C432.167634,455.829001 431.583817,455.57083 431,455.14166 C431.610789,454.970661 432.221577,454.970661 432.805394,455.056161 C433.230568,455.356245 433.62877,455.614425 434,455.785406 C433.601798,455.785406 433.17766,455.870906 432.725542,455.999991 L432.725542,456 Z M433,454.856746 C432.454545,454.856746 431.909091,454.904187 431.335927,455 C431.281595,454.975815 431.253896,454.952558 431.199564,454.952558 C430.736145,454.71442 430.353673,454.452087 430,454.166511 C430.491127,454.071627 430.982255,454 431.5,454 L431.636364,454 C432.073164,454.356279 432.536582,454.618612 433,454.85675 L433,454.856746 Z M431.5,455.000025 C431.999649,455.227375 432.500351,455.386338 433,455.500013 C432.500351,455.613687 431.973961,455.77265 431.5,456 C431.447566,456 431.420836,455.97691 431.368403,455.97691 C430.894441,455.863236 430.42048,455.704273 430,455.499112 C430.421533,455.317055 430.868754,455.134989 431.368403,455.021314 C431.394105,455.022202 431.447566,455.022202 431.5,455 L431.5,455.000025 Z M431.227267,457.07156 C431.2816,457.047398 431.309298,457.024163 431.363631,457 C431.909085,457.094795 432.45454,457.143121 432.945667,457.143121 L433,457.143121 C432.536582,457.381037 432.073164,457.666346 431.636364,458 L431.5,458 C430.982255,458 430.463418,457.92844 430,457.833644 C430.382445,457.571556 430.791536,457.309491 431.227273,457.071575 L431.227267,457.07156 Z M433.628343,457.186193 C434.113829,457.162579 434.571429,457.09355 435,457 C434.628343,457.186193 434.256686,457.395089 433.886171,457.651228 C433.314743,457.813807 432.657371,457.953683 432,458 C432.514514,457.673944 433.085943,457.395089 433.628343,457.186198 L433.628343,457.186193 Z M434,456.196491 C434.345018,456.122687 434.690036,456.048884 435,456 C434.690022,456.073804 434.380037,456.147608 434,456.196491 Z M435,457 C434.679688,457.122687 434.35936,457.245375 434,457.368062 C434.359376,457.221411 434.72032,457.098714 435,457 Z M436,457 C435.713761,457.332708 435.381043,457.665398 435,458 L436,457 Z M435,455 C435.381033,455.332708 435.713742,455.665398 436,456 L435,455 Z M434.340725,453.868095 C434.181897,453.302143 434.045248,452.651072 434,452 C434.340725,452.509583 434.613123,453.075536 434.818103,453.641488 C434.841172,454.122321 434.908609,454.575536 435,455 C434.817215,454.631905 434.590063,454.236191 434.340743,453.868095 L434.340725,453.868095 Z M434.857679,453 C434.619541,452.532262 434.357207,452.064523 434,451.651619 L434,451.513984 C434,450.991412 434.071627,450.467738 434.166511,450 C434.452087,450.358071 434.737662,450.770976 434.952558,451.210747 C434.976743,451.265586 435,451.293542 435,451.348381 C434.905116,451.898921 434.857674,452.44946 434.857674,453 L434.857679,453 Z M434,452 C433.75893,451.717442 433.48283,451.454613 433.17239,451.212312 C433.17239,451.172059 433.154882,451.151539 433.138046,451.111286 C433.051851,450.747431 433.017508,450.363855 433,450 C433.258585,450.202052 433.51717,450.424633 433.75824,450.686654 C433.775748,450.707174 433.810092,450.747427 433.826927,450.767159 C433.845109,451.2123 433.913796,451.616404 433.99999,452 L434,452 Z M434.428571,453.033489 C434.600446,453.385427 434.800229,453.715039 435,454 C434.685257,453.780258 434.314743,453.538191 433.914057,453.31845 C433.571429,452.922739 433.2288,452.483256 433,452 C433.571429,452.330469 434.029029,452.68155 434.428571,453.033467 L434.428571,453.033489 Z M434,455 C433.710933,454.800223 433.3776,454.600457 433.022578,454.428571 C432.644978,454.029029 432.289067,453.5424 432,453 C432.488711,453.228794 432.933156,453.571429 433.333333,453.914057 C433.532987,454.342629 433.7552,454.686371 434,455 Z M431.999988,453.99999 C431.612437,453.913737 431.204144,453.845003 430.77511,453.827484 C430.754377,453.809964 430.713707,453.793117 430.69377,453.75875 C430.408292,453.517518 430.183405,453.275596 430,453 C430.367626,453.01752 430.735253,453.051886 431.122804,453.138139 C431.163474,453.138139 431.184207,453.155659 431.224877,453.172506 C431.448969,453.482482 431.714502,453.75875 432,454 L431.999988,453.99999 Z M430.99998,453.856943 C430.570946,453.856943 430.183395,453.910676 429.795844,454 C429.468883,453.713878 429.224071,453.410321 429,453.124914 C429.387551,453.053734 429.816585,453 430.265543,453 C430.468891,453.302861 430.714502,453.588982 431,453.856953 L430.99998,453.856943 Z M431,454.616533 C430.428571,454.716793 429.914057,454.8496 429.428571,455 C428.886171,454.8164 428.399543,454.600267 428,454.383467 C428.485486,454.233727 429.056914,454.100267 429.657371,454 C430.056914,454.233067 430.514514,454.43295 431,454.616533 Z M431,456.383467 C430.485486,456.567067 430.056914,456.766933 429.657371,457 C429.056914,456.89974 428.485486,456.766933 428,456.616533 C428.399543,456.399733 428.886171,456.182933 429.428571,456 C429.914057,456.15039 430.428571,456.28385 431,456.383467 Z M429.796343,458 C430.18374,458.089261 430.571953,458.142956 431,458.142956 C430.714636,458.410738 430.469105,458.696657 430.26504,459 C429.81626,459 429.387397,458.946304 429,458.875175 C429.224798,458.571135 429.490225,458.285912 429.796323,458.000011 L429.796343,458 Z M430,458.99999 C430.204147,458.741231 430.429036,458.482472 430.693775,458.241239 C430.714508,458.22372 430.755178,458.189353 430.775115,458.172506 C431.204152,458.154986 431.612446,458.103773 432,458 C431.71452,458.241232 431.448965,458.517518 431.204152,458.828167 C431.163481,458.828167 431.142748,458.845686 431.102078,458.862533 C430.75519,458.948112 430.36682,458.983153 430,459 L430,458.99999 Z M433.033489,457.571429 C433.385427,457.399554 433.715039,457.199771 434,457 C433.780258,457.314743 433.538191,457.685257 433.31845,458.085943 C432.922739,458.428571 432.483256,458.7712 432,459 C432.330469,458.428571 432.68155,457.970971 433.033467,457.571429 L433.033489,457.571429 Z M433.914057,458.689244 C434.3136,458.467022 434.685257,458.2448 435,458 C434.800223,458.289067 434.600457,458.6224 434.428571,458.977422 C434.029029,459.355022 433.5424,459.710933 433,460 C433.257811,459.533844 433.571429,459.0894 433.914057,458.689244 Z M433.99999,459.000012 C433.913737,459.387563 433.845003,459.795856 433.827484,460.22489 C433.809964,460.245623 433.793117,460.286293 433.75875,460.30623 C433.517518,460.591708 433.275596,460.816595 433,461 C433.01752,460.632374 433.051886,460.264747 433.138139,459.877196 C433.138139,459.836526 433.155659,459.815793 433.172506,459.775123 C433.482482,459.551031 433.75875,459.285498 434,459 L433.99999,459.000012 Z M434,461.335927 C434.332702,460.899127 434.618963,460.463418 434.856879,460 C434.856879,460.545455 434.904277,461.090909 435,461.664073 C434.975837,461.718405 434.952602,461.746104 434.952602,461.800436 C434.714686,462.263855 434.452598,462.646327 434.167288,463 C434.072493,462.508873 434.000933,462.017745 434.000933,461.5 C434.000003,461.417969 434.000003,461.363636 434.000003,461.335938 L434,461.335927 Z M434.837426,459.342629 C434.628525,459.914057 434.348772,460.456457 434,461 C434.046322,460.314743 434.186193,459.685257 434.348772,459.113829 C434.604911,458.742171 434.813802,458.370514 435,458 C434.953678,458.370543 434.883743,458.856029 434.837421,459.342629 L434.837426,459.342629 Z M435,458 C435.122546,457.654659 435.245093,457.307811 435.367639,457 C435.269028,457.307803 435.146482,457.654636 435,458 Z M435.025798,459.194606 C435.335539,458.769432 435.602027,458.37123 435.77851,458 C435.823499,458.398202 435.86676,458.823375 436,459.274458 C435.823499,459.832366 435.55702,460.416183 435.11404,461 C434.982528,460.389211 434.982528,459.778423 435.025789,459.194606 L435.025798,459.194606 Z M435.500899,460 C435.614372,460.499649 435.773053,461.000351 436,461.5 C436,461.552434 435.976951,461.579164 435.976951,461.631597 C435.863478,462.105559 435.704797,462.57952 435.5,463 C435.318266,462.578467 435.136522,462.131246 435.023049,461.631597 C435.023049,461.579164 435,461.552434 435,461.5 C435.228717,461.026039 435.387398,460.499649 435.500871,460 L435.500899,460 Z M436.000009,459.274458 C436.130593,458.823375 436.217085,458.398202 436.217085,458 C436.390068,458.37123 436.651237,458.796404 436.954796,459.194606 C437.041287,459.778423 436.998888,460.389211 436.868304,461 C436.434152,460.442093 436.172966,459.858276 436,459.274458 L436.000009,459.274458 Z M437,457 C437.122546,457.320312 437.245093,457.64064 437.367639,458 C437.221157,457.640624 437.098601,457.27968 437,457 Z M437.659275,459.131905 C437.818103,459.697857 437.954752,460.348928 438,461 C437.659275,460.490417 437.386877,459.924464 437.181897,459.358512 C437.158828,458.877679 437.091391,458.424464 437,458 C437.182785,458.368095 437.409937,458.763809 437.659257,459.131905 L437.659275,459.131905 Z M437.142321,460 C437.380459,460.467738 437.642793,460.935477 438,461.348381 L438,461.486016 C438,462.008588 437.928373,462.532262 437.833489,463 C437.547913,462.641929 437.262338,462.229024 437.047442,461.789253 C437.023257,461.734414 437,461.706458 437,461.651619 C437.094884,461.101079 437.142326,460.55054 437.142326,460 L437.142321,460 Z M438,459 C438.24107,459.282558 438.51717,459.545387 438.82761,459.787688 C438.82761,459.827941 438.845118,459.848461 438.861954,459.888714 C438.948149,460.252569 438.982492,460.636145 439,461 C438.741415,460.797948 438.48283,460.575367 438.24176,460.313346 C438.224252,460.292826 438.189908,460.252573 438.173073,460.232841 C438.154891,459.7877 438.086204,459.383596 438.00001,459 L438,459 Z M437.571429,458.966511 C437.399554,458.614573 437.199771,458.284961 437,458 C437.314743,458.219742 437.685257,458.461809 438.085943,458.68155 C438.428571,459.077261 438.7712,459.516744 439,460 C438.428571,459.669531 437.970971,459.31845 437.571429,458.966533 L437.571429,458.966511 Z M438,457 C438.289067,457.199777 438.6224,457.399543 438.977422,457.571429 C439.355022,457.970971 439.710933,458.4576 440,459 C439.511289,458.771206 439.066844,458.428571 438.666667,458.085943 C438.467013,457.657371 438.2448,457.313629 438,457 Z M439.000012,458.00001 C439.387563,458.086263 439.795856,458.154997 440.22489,458.172516 C440.245623,458.190036 440.286293,458.206883 440.30623,458.24125 C440.591708,458.482482 440.816595,458.724404 441,459 C440.632374,458.98248 440.264747,458.948114 439.877196,458.861861 C439.836526,458.861861 439.815793,458.844341 439.775123,458.827494 C439.551031,458.517518 439.285498,458.24125 439,458 L439.000012,458.00001 Z M441.00002,458.143057 C441.429054,458.143057 441.816605,458.089324 442.204156,458 C442.531117,458.286122 442.775929,458.589679 443,458.875086 C442.612449,458.946266 442.183415,459 441.734457,459 C441.531109,458.697139 441.285498,458.411018 441,458.143047 L441.00002,458.143057 Z M441,456.383467 C441.571429,456.283207 442.085943,456.1504 442.571429,456 C443.113829,456.1836 443.600457,456.399733 444,456.616533 C443.514514,456.766273 442.943086,456.899733 442.342629,457 C441.943086,456.766933 441.485486,456.56705 441,456.383467 Z M441,454.616533 C441.514514,454.432933 441.943086,454.233067 442.342629,454 C442.943086,454.10026 443.514514,454.233067 444,454.383467 C443.600457,454.600267 443.113829,454.817067 442.571429,455 C442.085943,454.84961 441.571429,454.71615 441,454.616533 Z M444,451.151473 C443.914321,451.454431 443.699295,452.181045 443.333047,453 C442.924824,452.87929 442.472906,452.788166 442,452.757397 C442.236883,452.151482 442.408223,451.576347 442.537588,451 C443.204542,451 443.763117,451.091124 444,451.151479 L444,451.151473 Z M441.236496,449.368114 C442.052964,449.131609 442.711067,449.025692 443,449 C442.973265,449.289985 442.868379,449.973776 442.631884,450.763495 C442.132147,450.79023 441.57892,450.86838 441,451 C441.157329,450.421083 441.209772,449.868886 441.236506,449.368125 L441.236496,449.368114 Z M440.873505,448 C440.933674,448.234423 441.024517,448.766428 440.993844,449.467995 C440.449957,449.596008 439.845906,449.765577 439.241856,450 C439.211182,449.532005 439.121517,449.064011 439,448.680797 C439.845912,448.297583 440.571467,448.08478 440.873493,448 L440.873505,448 Z M439.740591,451.542905 C440.160065,451.29604 440.579539,451.123432 441,451 C440.876567,451.419473 440.703959,451.864027 440.457094,452.259406 C440.432022,452.308586 440.407913,452.333658 440.382841,452.382838 C439.889111,452.531342 439.420461,452.753135 439,453 C439.246865,452.580527 439.468649,452.110892 439.617164,451.617162 C439.666344,451.59209 439.690453,451.567982 439.740596,451.54291 L439.740591,451.542905 Z M439,450.26474 C438.714081,450.468888 438.410738,450.713702 438.142956,451 C438.142956,450.570962 438.089261,450.183407 438,449.795852 C438.285919,449.468888 438.589262,449.224073 438.874468,449 C438.946294,449.387555 438.999989,449.815797 438.999989,450.26476 L439,450.26474 Z M438.389043,447.000029 C438.499733,447.288532 438.777531,447.980478 439,448.875299 C438.555062,449.163802 438.083009,449.539087 437.639182,450 C437.472064,449.365524 437.222469,448.816675 437,448.326451 C437.555617,447.634505 438.13946,447.20175 438.389043,447 L438.389043,447.000029 Z M437,449.657371 C436.7832,450.056914 436.5664,450.485486 436.383467,451 C436.283207,450.428571 436.1504,449.914057 436,449.428571 C436.1836,448.886171 436.399733,448.399543 436.616533,448 C436.766923,448.485486 436.916667,449.056914 437,449.657371 Z M436,446 C436.183967,446.251918 436.605346,446.812696 437,447.598026 C436.657756,447.99013 436.315513,448.467699 436,449 C435.684487,448.467699 435.342244,447.99013 435,447.598026 C435.394654,446.812696 435.816039,446.22454 436,446 Z M434.383467,448 C434.600267,448.399543 434.817067,448.886171 435,449.428571 C434.85026,449.914057 434.7168,450.428571 434.616533,451 C434.432933,450.485486 434.233067,450.056914 434,449.657371 C434.10026,449.056914 434.25,448.485486 434.383467,448 Z M433.582731,447 C433.832326,447.173487 434.387932,447.634238 435,448.327078 C434.750406,448.817119 434.527948,449.393909 434.360818,450 C433.91588,449.567408 433.443827,449.192263 433,448.875721 C433.193163,447.98011 433.470969,447.288424 433.582759,447.000029 L433.582731,447 Z M433.125532,449.00002 C433.411452,449.224908 433.714795,449.489645 434,449.795864 C433.910739,450.183415 433.857044,450.571783 433.857044,451 C433.589262,450.714522 433.303343,450.468893 433,450.264747 C433.000697,449.816585 433.054394,449.388347 433.125522,449 L433.125532,449.00002 Z M432.382836,451.617162 C432.531341,452.110892 432.753135,452.57954 433,453 C432.580526,452.753135 432.110889,452.531352 431.617159,452.382838 C431.592087,452.333658 431.567978,452.308586 431.542906,452.259406 C431.296041,451.839933 431.123433,451.42046 431,451 C431.419474,451.123432 431.864029,451.29604 432.259409,451.542905 C432.309552,451.567977 432.333661,451.592086 432.382841,451.617157 L432.382836,451.617162 Z M431.151473,448 C431.454431,448.085679 432.181045,448.300705 433,448.666953 C432.87929,449.075176 432.788166,449.527094 432.757397,450 C432.151482,449.763117 431.576347,449.591777 431,449.462412 C431,448.795458 431.091124,448.236883 431.151479,448 L431.151473,448 Z M429,449 C429.289985,449.026745 429.973776,449.13163 430.763495,449.368125 C430.79023,449.867859 430.86838,450.421083 431,451 C430.421083,450.86838 429.867859,450.789203 429.368125,450.763495 C429.104885,449.947031 429.025703,449.288932 429,449 Z M428,451.126495 C428.234423,451.066326 428.766428,450.975483 429.467995,451.006156 C429.596008,451.550043 429.765577,452.154094 430,452.758144 C429.532005,452.788818 429.064011,452.878483 428.680797,453 C428.297583,452.154088 428.08478,451.428533 428,451.126507 L428,451.126495 Z M427.000029,453.610957 C427.288532,453.500267 427.980478,453.222469 428.875299,453 C429.163802,453.444938 429.539087,453.916991 430,454.360818 C429.365524,454.527936 428.816675,454.777531 428.326451,455 C427.634505,454.444383 427.20175,453.86054 427,453.610957 L427.000029,453.610957 Z M426,456 C426.251918,455.816033 426.812696,455.394654 427.598026,455 C427.99013,455.342244 428.467699,455.684487 429,456 C428.467699,456.315513 427.99013,456.657756 427.598026,457 C426.812696,456.605346 426.22454,456.183961 426,456 Z M427,458.417269 C427.173487,458.167674 427.634238,457.612068 428.327078,457 C428.817119,457.249594 429.393909,457.472052 430,457.639182 C429.567408,458.08412 429.192263,458.556173 428.875721,459 C427.98011,458.806837 427.288424,458.529031 427.000029,458.417241 L427,458.417269 Z M428,460.848527 C428.085679,460.545569 428.300705,459.818955 428.666953,459 C429.075176,459.12071 429.527094,459.211834 430,459.242603 C429.763117,459.848518 429.591777,460.454434 429.462412,461 C428.795458,461 428.236883,460.908876 428,460.848521 L428,460.848527 Z M430.763504,462.631886 C429.947036,462.868391 429.288933,462.974308 429,463 C429.026735,462.710015 429.131621,462.026224 429.368116,461.236505 C429.867853,461.20977 430.42108,461.13162 431,461 C430.842671,461.578917 430.790228,462.131114 430.763494,462.631875 L430.763504,462.631886 Z M431.126495,464 C431.066326,463.765577 430.975483,463.233572 431.006156,462.532005 C431.550043,462.403992 432.154094,462.234423 432.758144,462 C432.788818,462.467995 432.878483,462.935989 433,463.319203 C432.154088,463.702417 431.428533,463.91522 431.126507,464 L431.126495,464 Z M432.259409,460.457095 C431.839935,460.70396 431.420461,460.876568 431,461 C431.123433,460.580527 431.296041,460.135973 431.542906,459.740594 C431.567978,459.691414 431.592087,459.666342 431.617159,459.617162 C432.110889,459.468658 432.579539,459.246865 433,459 C432.753135,459.419473 432.531351,459.889108 432.382836,460.382838 C432.333656,460.40791 432.309547,460.432018 432.259404,460.45709 L432.259409,460.457095 Z M433,461.73526 C433.285919,461.531112 433.589262,461.286298 433.857044,461 C433.857044,461.429038 433.910739,461.816593 434,462.204148 C433.714081,462.531112 433.410738,462.775927 433.125532,463 C433.053706,462.612445 433.000011,462.184203 433.000011,461.73524 L433,461.73526 Z M433.610957,465.999971 C433.500267,465.711468 433.222469,465.019522 433,464.124701 C433.444938,463.836198 433.916991,463.460913 434.360818,463 C434.527936,463.634476 434.777531,464.183325 435,464.673549 C434.444383,465.365495 433.86054,465.79825 433.610957,466 L433.610957,465.999971 Z M434,462.342629 C434.2168,461.943086 434.4336,461.514514 434.616533,461 C434.716793,461.571429 434.8496,462.085943 435,462.571429 C434.8164,463.113829 434.600267,463.600457 434.383467,464 C434.233077,463.514514 434.083333,462.943086 434,462.342629 Z M436,466 C435.816033,465.748082 435.394654,465.187304 435,464.401974 C435.342244,464.00987 435.684487,463.532301 436,463 C436.315513,463.532301 436.657756,464.00987 437,464.401974 C436.605346,465.187304 436.183961,465.77546 436,466 Z M436.616533,464 C436.399733,463.600457 436.182933,463.113829 436,462.571429 C436.14974,462.085943 436.2832,461.571429 436.383467,461 C436.567067,461.514514 436.766933,461.943086 437,462.342629 C436.89974,462.943086 436.75,463.514514 436.616533,464 Z M438.417269,466 C438.167674,465.826513 437.612068,465.365762 437,464.672922 C437.249594,464.182881 437.472052,463.606091 437.639182,463 C438.08412,463.432592 438.556173,463.807737 439,464.124279 C438.806837,465.01989 438.529031,465.711576 438.417241,465.999971 L438.417269,466 Z M438.874468,462.99998 C438.588548,462.775092 438.285205,462.510355 438,462.204136 C438.089261,461.816585 438.142956,461.428217 438.142956,461 C438.410738,461.285478 438.696657,461.531107 439,461.735253 C438.999303,462.183415 438.945606,462.611653 438.874478,463 L438.874468,462.99998 Z M439.617164,460.382838 C439.468659,459.889108 439.246865,459.42046 439,459 C439.419474,459.246865 439.889111,459.468648 440.382841,459.617162 C440.407913,459.666342 440.432022,459.691414 440.457094,459.740594 C440.703959,460.160067 440.876567,460.57954 441,461 C440.580526,460.876568 440.135971,460.70396 439.740591,460.457095 C439.690448,460.432023 439.666339,460.407914 439.617159,460.382843 L439.617164,460.382838 Z M440.848527,464 C440.545569,463.914321 439.818955,463.699295 439,463.333047 C439.12071,462.924824 439.211834,462.472906 439.242603,462 C439.848518,462.236883 440.423653,462.408223 441,462.537588 C441,463.204542 440.908876,463.763117 440.848521,464 L440.848527,464 Z M443,463 C442.710015,462.973255 442.026224,462.86837 441.236505,462.631875 C441.20977,462.132141 441.13162,461.578917 441,461 C441.578917,461.13162 442.132141,461.210797 442.631875,461.236505 C442.895115,462.052969 442.974297,462.711068 443,463 Z M444,460.873505 C443.765577,460.933674 443.233572,461.024517 442.532005,460.993844 C442.403992,460.449957 442.234423,459.845906 442,459.241856 C442.467995,459.211182 442.935989,459.151013 443.319203,459 C443.702417,459.845912 443.91522,460.571467 444,460.873493 L444,460.873505 Z M445.999971,458.389043 C445.711468,458.499733 445.019522,458.777531 444.124701,459 C443.836198,458.555062 443.460913,458.083009 443,457.639182 C443.634476,457.472064 444.183325,457.222469 444.673549,457 C445.365495,457.555617 445.79825,458.13946 446,458.389043 L445.999971,458.389043 Z M444.401974,457 C444.00987,456.657756 443.532301,456.315513 443,456 C443.532301,455.684487 444.00987,455.342244 444.401974,455 C445.187304,455.394654 445.77546,455.816039 446,456 C445.775465,456.183967 445.187304,456.605346 444.401974,457 Z" id="Mehendi" fill="#26A69A" fill-rule="nonzero"></path>
        </g>
    </g>
</svg>