<?xml version="1.0"?>
<svg xmlns="http://www.w3.org/2000/svg" height="512px" viewBox="-27 0 512 512.00519" width="512px"><path d="m143.824219 32.304688c-27.484375 24.382812-43.253907 59.273437-43.253907 95.714843v63.46875c0 43.644531-14.855468 86.585938-41.816406 120.917969l-49.078125 62.46875h437.789063l-49.078125-62.46875c-26.96875-34.320312-41.824219-77.265625-41.824219-120.917969v-18.039062c-1.089844.082031-2.148438.035156-3.238281.082031-25.753907 1.179688-51.582031-8.539062-70.230469-26.378906-17.636719-16.855469-28.453125-40.644532-29.550781-65.019532-1.171875-25.945312 8.703125-52.304687 26.789062-70.984374-11.539062-5.273438-23.632812-8.691407-36.132812-10.191407-36.933594-4.445312-72.589844 6.699219-100.375 31.347657zm0 0" fill="#eeeeee"/><path d="m174.46875 466.292969c4.371094 25.910156 26.960938 45.710937 54.097656 45.710937 27.132813 0 49.726563-19.800781 54.097656-45.710937zm0 0" fill="#eeeeee"/><path d="m289.464844 28.960938c-11.382813 13.894531-18.140625 31.632812-17.71875 50.566406.546875 24.308594 13.265625 48.042968 33.214844 61.949218 40.691406 28.371094 98.996093 10.332032 116.90625-35.664062 3.472656-8.933594 5.246093-18.496094 5.246093-28.078125 0-42.851563-34.859375-77.7109375-77.710937-77.7109375-23.890625 0-45.585938 11.4101565-59.9375 28.9375005zm0 0" fill="#eeeeee"/><path d="m.00390625 448.007812h457.12499975v-54.855468h-457.12499975zm0 0" fill="#eeeeee"/></svg>
