<?xml version="1.0" encoding="UTF-8"?>
<svg width="16px" height="20px" viewBox="0 0 16 20" version="1.1" xmlns="http://www.w3.org/2000/svg" xmlns:xlink="http://www.w3.org/1999/xlink">
    <!-- Generator: sketchtool 50.2 (55047) - http://www.bohemiancoding.com/sketch -->
    <title>C247052C-9668-46E6-8AEE-F6893ADE17E4</title>
    <desc>Created with sketchtool.</desc>
    <defs></defs>
    <g id="Projects-page" stroke="none" stroke-width="1" fill="none" fill-rule="evenodd">
        <g id="Projects-Hover-states" transform="translate(-1217.000000, -18.000000)" fill="#E0E0E0">
            <g id="icon/small/notification/default" transform="translate(1217.000000, 18.000000)">
                <path d="M8,19.5 C9.1,19.5 10,18.6 10,17.5 L6,17.5 C6,18.6 6.89,19.5 8,19.5 L8,19.5 Z M14,13.5 L14,8.5 C14,5.43 12.36,2.86 9.5,2.18 L9.5,1.5 C9.5,0.67 8.83,0 8,0 C7.17,0 6.5,0.67 6.5,1.5 L6.5,2.18 C3.63,2.86 2,5.42 2,8.5 L2,13.5 L0,15.5 L0,16.5 L16,16.5 L16,15.5 L14,13.5 L14,13.5 Z" id="Notification"></path>
            </g>
        </g>
    </g>
</svg>