<?xml version="1.0" encoding="UTF-8"?>
<svg width="13px" height="12px" viewBox="0 0 13 12" version="1.1" xmlns="http://www.w3.org/2000/svg" xmlns:xlink="http://www.w3.org/1999/xlink">
    <!-- Generator: Sketch 51 (57462) - http://www.bohemiancoding.com/sketch -->
    <title>Photographer</title>
    <desc>Created with Sketch.</desc>
    <defs></defs>
    <g id="Event-manager" stroke="none" stroke-width="1" fill="none" fill-rule="evenodd">
        <g transform="translate(-477.000000, -924.000000)">
            <rect fill="#FAFAFA" x="0" y="0" width="1440" height="1294"></rect>
            <g id="Group-11-Copy" transform="translate(450.000000, 798.000000)" fill="#9CCC65">
                <g id="Group-8" transform="translate(18.000000, 116.000000)">
                    <path d="M13.55,10 L12.3605,11.3333333 L10.3,11.3333333 C9.585,11.3333333 9,11.9333333 9,12.6666667 L9,20.6666667 C9,21.4 9.585,22 10.3,22 L20.7,22 C21.415,22 22,21.4 22,20.6666667 L22,12.6666667 C22,11.9333333 21.415,11.3333333 20.7,11.3333333 L18.6395,11.3333333 L17.45,10 L13.55,10 L13.55,10 Z M15.5,20 C13.706,20 12.25,18.5066667 12.25,16.6666667 C12.25,14.8266667 13.706,13.3333333 15.5,13.3333333 C17.294,13.3333333 18.75,14.8266667 18.75,16.6666667 C18.75,18.5066667 17.294,20 15.5,20 L15.5,20 Z" id="Photographer"></path>
                </g>
            </g>
        </g>
    </g>
</svg>