<?xml version="1.0" encoding="UTF-8"?>
<svg width="36px" height="35px" viewBox="0 0 36 35" version="1.1" xmlns="http://www.w3.org/2000/svg" xmlns:xlink="http://www.w3.org/1999/xlink">
    <!-- Generator: sketchtool 50.2 (55047) - http://www.bohemiancoding.com/sketch -->
    <title>0A19A1DB-EE55-4698-B39C-95306DCA204A</title>
    <desc>Created with sketchtool.</desc>
    <defs></defs>
    <g id="Registration" stroke="none" stroke-width="1" fill="none" fill-rule="evenodd">
        <g id="Activity-selected" transform="translate(-276.000000, -303.000000)" fill="#BBBDBF" fill-rule="nonzero">
            <g id="np_planning_965708_000000" transform="translate(276.000000, 303.000000)">
                <path d="M7.39222805,11.3642961 L22.6059307,11.3642961 C23.1684079,11.3642961 23.5705836,10.9189144 23.5705836,10.3503016 C23.5705836,9.78168885 23.1684079,9.33630717 22.6059307,9.33630717 L7.39222805,9.33630717 C6.82975088,9.33630717 6.4275752,9.78168885 6.4275752,10.3503016 C6.4275752,10.9189144 6.82975088,11.3642961 7.39222805,11.3642961 Z M19.6065324,14.8852925 L7.39222805,14.8852925 C6.82975088,14.8852925 6.4275752,15.3306742 6.4275752,15.899287 C6.4275752,16.4678997 6.82975088,16.9132814 7.39222805,16.9132814 L19.6065324,16.9132814 C20.1690096,16.9132814 20.5711853,16.4678997 20.5711853,15.899287 C20.5711853,15.3306742 20.1690096,14.8852925 19.6065324,14.8852925 Z M17.0346168,20.4344571 L7.39240805,20.4344571 C6.82993087,20.4344571 6.42775519,20.8798388 6.42775519,21.4484515 C6.42775519,22.0170643 6.82993087,22.462446 7.39240805,22.462446 L17.0346168,22.462446 C17.597094,22.462446 17.9992697,22.0170643 17.9992697,21.4484515 C17.9992697,20.8798388 17.597094,20.4344571 17.0346168,20.4344571 Z M15.749361,26.410646 L7.39230005,26.410646 C6.82982287,26.410646 6.42764719,26.8560276 6.42764719,27.4246404 C6.42764719,27.9932532 6.82982287,28.4386349 7.39230005,28.4386349 L15.749361,28.4386349 C16.3118381,28.4386349 16.7140138,27.9932532 16.7140138,27.4246404 C16.7140138,26.8546293 16.3118381,26.410646 15.749361,26.410646 Z M29.9983028,19.8306712 L29.9983028,2.88236021 C29.9983028,1.24091611 28.6553773,0 26.9989045,0 L2.9993983,0 C1.34429345,0 0,1.24088026 0,2.88236021 L0,32.1190035 C0,33.7604476 1.34292551,34.9999654 2.9993983,34.9999654 L28.2646131,34.9999654 C32.5239603,35.0125703 35.9873798,31.5826237 35.9999793,27.3375504 C36.0084166,23.6750372 33.4406991,20.6091391 29.9983028,19.8303844 L29.9983028,19.8306712 Z M2.9993983,32.0128748 L2.9993983,5.54920044 L26.9989045,5.54920044 L26.9989045,19.7492821 C23.3612521,20.3585177 20.579645,23.4971284 20.5713653,27.2969634 C20.5671466,29.0742593 21.1732249,30.7087118 22.1884917,32.0125163 L2.9993983,32.0128748 Z M28.2840523,33.0801129 C25.089182,33.0801129 22.4990871,30.500291 22.4990871,27.3183325 C22.4990871,24.1363741 25.08929,21.555118 28.2840523,21.555118 C31.4803267,21.555118 34.0704576,24.1363382 34.0704576,27.3183325 C34.0704576,30.5003268 31.4802547,33.0801129 28.2840523,33.0801129 Z M30.879871,23.6766148 L27.8157833,28.0225103 L25.4660507,25.6835932 L24.1132976,26.981912 L28.0338985,30.8824974 L32.3818021,24.7521352 L30.879871,23.6766148 Z" id="Shape"></path>
            </g>
        </g>
    </g>
</svg>