<?xml version="1.0" encoding="UTF-8"?>
<svg width="20px" height="16px" viewBox="0 0 20 16" version="1.1" xmlns="http://www.w3.org/2000/svg" xmlns:xlink="http://www.w3.org/1999/xlink">
    <!-- Generator: sketchtool 50.2 (55047) - http://www.bohemiancoding.com/sketch -->
    <title>42A106FD-A35F-4A4E-9820-7D05D0B803DF</title>
    <desc>Created with sketchtool.</desc>
    <defs></defs>
    <g id="Projects-page" stroke="none" stroke-width="1" fill="none" fill-rule="evenodd">
        <g id="Projects-Hover-states" transform="translate(-1165.000000, -20.000000)" fill="#E0E0E0">
            <g id="icon/small/message/default" transform="translate(1165.000000, 20.000000)">
                <path d="M18,0 L2,0 C0.9,0 0.01,0.9 0.01,2 L0,14 C0,15.1 0.9,16 2,16 L18,16 C19.1,16 20,15.1 20,14 L20,2 C20,0.9 19.1,0 18,0 L18,0 Z M18,14 L2,14 L2,4 L10,9 L18,4 L18,14 L18,14 Z M10,7 L2,2 L18,2 L10,7 L10,7 Z" id="Message-icon"></path>
            </g>
        </g>
    </g>
</svg>