<?xml version="1.0" encoding="UTF-8"?>
<svg width="20px" height="14px" viewBox="0 0 20 14" version="1.1" xmlns="http://www.w3.org/2000/svg" xmlns:xlink="http://www.w3.org/1999/xlink">
    <!-- Generator: Sketch 51 (57462) - http://www.bohemiancoding.com/sketch -->
    <title>sangeeth</title>
    <desc>Created with Sketch.</desc>
    <defs></defs>
    <g id="Events" stroke="none" stroke-width="1" fill="none" fill-rule="evenodd">
        <g id="Event-flow_expanded-Copy" transform="translate(-426.000000, -1431.000000)">
            <rect fill="#FAFAFA" x="0" y="0" width="1440" height="1731"></rect>
            <g id="Group-20-Copy-2" transform="translate(388.000000, 1397.000000)" fill="#9575CD" fill-rule="nonzero">
                <g id="sangeeth" transform="translate(38.000000, 34.000000)">
                    <path d="M7.4895025,1.10868482 C7.57814876,1.80564172 7.09560464,2.4437085 6.41111312,2.53476618 C5.72660188,2.62502419 5.09992915,2.13370654 5.0104975,1.43676973 C4.92185124,0.739812821 5.40439536,0.101746041 6.08888688,0.0106883639 C6.77339812,-0.079569645 7.40007085,0.411748004 7.4895025,1.10868482" id="Shape"></path>
                    <path d="M15.3370241,0.0476037842 C16.0015466,0.236770577 16.3893031,0.93927441 16.2035163,1.6158791 C16.0177274,2.2924838 15.3277683,2.68729043 14.6632459,2.49812565 C13.9987234,2.30817519 13.6101972,1.60645502 13.7967537,0.92985033 C13.9825425,0.253245636 14.6725017,-0.142344665 15.3370241,0.0476037842" id="Shape"></path>
                    <path d="M19.8376239,0.0674242525 C19.6696469,-0.0546650368 19.4422829,-0.00633721254 19.3297769,0.175099409 C18.7875682,1.05346944 17.9437634,1.79957066 17.2358659,2.3133658 C16.8827272,2.57110985 16.5631702,2.77120606 16.3342581,2.90686082 C16.219408,2.97468821 16.1280071,3.02640631 16.0647038,3.06032 C16.0334521,3.07727685 16.0092328,3.08999476 15.993606,3.09847264 C15.9779802,3.10695117 15.9717288,3.10949475 15.9717288,3.10949475 C15.9701664,3.11034254 15.9693849,3.11119032 15.9678224,3.11203811 C15.8342214,3.13747392 15.6857675,3.17562656 15.5209187,3.23327875 C15.2498044,3.32823708 15.0365131,3.43337061 14.8740044,3.52833329 C14.8568159,3.53342045 14.8404087,3.53935518 14.8240018,3.54783371 C14.8099386,3.55376867 14.4247606,3.73266279 13.7091027,3.73266279 C13.1223515,3.73266279 12.3105885,3.61142216 11.2941746,3.16883817 C11.287143,3.14594616 11.2801115,3.12305415 11.2699553,3.10016214 C11.1613556,2.85767653 10.8918153,2.75594631 10.6683634,2.87378146 C9.92456397,3.26464083 9.24016768,3.38926957 8.65645672,3.38926957 C8.11188784,3.38926957 7.65640369,3.27905062 7.33998691,3.17052898 C7.18216654,3.11626707 7.05951204,3.06200516 6.97902777,3.02385253 C6.93840161,3.00435232 6.90871204,2.98909018 6.89074109,2.97891716 C6.88136539,2.97383022 6.87511506,2.97043885 6.87199009,2.96789527 L6.86886473,2.96619969 C6.81104966,2.93143734 6.75010843,2.91278644 6.68838716,2.90769884 C6.68135538,2.90600327 6.67354257,2.90430747 6.66651,2.90345969 C5.96179262,2.83478365 5.25783529,2.76610978 4.55319793,2.69743374 C4.54382223,2.69658595 4.53366549,2.69658595 4.52429039,2.69743374 C4.34849907,2.67199793 3.7758107,2.57534445 3.08045383,2.3294729 C2.32885397,2.06493525 1.44052686,1.62237515 0.755330529,0.937307726 C0.571726792,0.755022448 0.287345712,0.767739268 0.118576762,0.966982477 C-0.0494001457,1.16537703 -0.0376815243,1.47483051 0.145922212,1.6579753 C1.02878903,2.53549885 2.10696621,3.02893492 2.9648717,3.3155029 C3.27348807,3.41809263 3.5531829,3.49354924 3.78679529,3.54780897 C3.72350993,5.00354739 4.02430788,5.91254285 4.49621291,7.25194375 C4.50011931,7.26296564 4.50246324,7.2739871 4.50715109,7.28500878 C4.51340142,7.29857426 4.93217362,8.44399969 4.93061354,10.1270304 C4.93061354,10.9714759 4.82670203,11.9515761 4.51731162,13.0037796 C4.39933737,13.405665 4.60325418,13.8355061 4.97357582,13.9635425 C5.04467359,13.9881297 5.1165514,14 5.18764717,14 C5.48532296,14 5.76267767,13.7931276 5.85800272,13.468407 C6.21662174,12.2483605 6.3384882,11.108014 6.3384882,10.1269588 C6.33770676,9.32236322 6.25723389,8.62542329 6.15879067,8.07433937 C6.33926824,8.25238571 6.63927615,8.59659937 6.95649297,9.17314297 C7.40885696,9.9972511 7.89950298,11.2978439 8.10265375,13.284242 C8.14249987,13.6751014 8.44721203,13.9642088 8.80113079,13.9642088 C8.82691416,13.9642088 8.85347757,13.9625133 8.87925894,13.9591219 C9.2652194,13.9124914 9.54413419,13.5352062 9.50117192,13.1155229 C9.25661895,10.7119375 8.6089446,9.10600211 7.99485204,8.09629656 C7.67061484,7.56216406 7.35731823,7.19589619 7.12370584,6.96187544 C6.54867535,5.69095307 6.64478044,4.94741302 6.97838613,4.06993288 C7.36746677,4.21321904 7.94719751,4.36498742 8.65659513,4.36668039 L8.65893905,4.36668039 C9.31287373,4.36668039 10.0761942,4.23272077 10.882457,3.84355221 C12.0450186,4.37260579 13.0013693,4.52690495 13.7100069,4.52690495 C14.0194033,4.52690495 14.2795771,4.49807885 14.4905083,4.45907757 C14.5248861,6.05303192 14.3092487,7.58760204 13.8865763,9.00101618 C14.2139336,9.02560333 14.541291,9.05103914 14.8686684,9.0756263 L13.6404832,13.1767412 C13.5443841,13.4980802 13.7061107,13.842296 14.0022224,13.9465874 C14.2975581,14.0508723 14.6155349,13.8753697 14.71164,13.5540351 L16.0265498,9.1631616 C16.1335874,9.17163992 16.2398411,9.17927066 16.3468867,9.18774876 L16.3468867,13.3641792 C16.3468867,13.7016231 16.5992401,13.9754721 16.9101966,13.9754721 C17.2211531,13.9754721 17.4735065,13.7016231 17.4735065,13.3641792 L17.4735065,9.27326552 C17.8024239,9.29870133 18.1321414,9.32328849 18.4610589,9.3487243 C18.2477675,7.24438246 17.7016386,5.26215161 16.8906556,3.47997356 C17.105507,3.34686259 17.3649007,3.17645416 17.6453756,2.97212552 C18.3977555,2.42273457 19.3079638,1.63252928 19.9384972,0.616724693 C20.0502211,0.436983213 20.0056888,0.190269519 19.8377099,0.0673337436 L19.8376239,0.0674242525 Z" id="Shape"></path>
                </g>
            </g>
        </g>
    </g>
</svg>