<?xml version="1.0" encoding="UTF-8"?>
<svg width="16px" height="16px" viewBox="0 0 16 16" version="1.1" xmlns="http://www.w3.org/2000/svg" xmlns:xlink="http://www.w3.org/1999/xlink">
    <!-- Generator: sketchtool 50.2 (55047) - http://www.bohemiancoding.com/sketch -->
    <title>8D31FEAF-1B82-4CF6-ABC2-DDF1A46D35E3</title>
    <desc>Created with sketchtool.</desc>
    <defs></defs>
    <g id="Events" stroke="none" stroke-width="1" fill="none" fill-rule="evenodd">
        <g id="Event-flow_expanded" transform="translate(-969.000000, -20.000000)" fill="#E0E0E0">
            <path d="M980.435106,30.0628931 L979.712407,30.0628931 L979.456261,29.8158948 C980.352773,28.7730132 980.89251,27.4190966 980.89251,25.946255 C980.89251,22.6620926 978.230417,20 974.946255,20 C971.662093,20 969,22.6620926 969,25.946255 C969,29.2304174 971.662093,31.89251 974.946255,31.89251 C976.419097,31.89251 977.773013,31.352773 978.815895,30.4562607 L979.062893,30.7124071 L979.062893,31.4351058 L983.636935,36 L985,34.6369354 L980.435106,30.0628931 L980.435106,30.0628931 Z M974.946255,30.0628931 C972.668382,30.0628931 970.829617,28.2241281 970.829617,25.946255 C970.829617,23.6683819 972.668382,21.8296169 974.946255,21.8296169 C977.224128,21.8296169 979.062893,23.6683819 979.062893,25.946255 C979.062893,28.2241281 977.224128,30.0628931 974.946255,30.0628931 L974.946255,30.0628931 Z" id="Shape"></path>
        </g>
    </g>
</svg>