<?xml version="1.0" encoding="UTF-8"?>
<svg width="14px" height="14px" viewBox="0 0 14 14" version="1.1" xmlns="http://www.w3.org/2000/svg" xmlns:xlink="http://www.w3.org/1999/xlink">
    <!-- Generator: Sketch 51 (57462) - http://www.bohemiancoding.com/sketch -->
    <title>Shape</title>
    <desc>Created with Sketch.</desc>
    <defs></defs>
    <g id="Team" stroke="none" stroke-width="1" fill="none" fill-rule="evenodd">
        <g id="New-team-assign" transform="translate(-825.000000, -593.000000)">
            <rect fill="#FAFAFA" x="0" y="0" width="1440" height="954"></rect>
            <g id="Group-11" transform="translate(801.000000, 554.000000)" fill="#747474">
                <path d="M34.0057176,47.8050314 L33.3733562,47.8050314 L33.1492281,47.5889079 C33.9336764,46.6763865 34.4059463,45.4917095 34.4059463,44.2029731 C34.4059463,41.329331 32.0766152,39 29.2029731,39 C26.329331,39 24,41.329331 24,44.2029731 C24,47.0766152 26.329331,49.4059463 29.2029731,49.4059463 C30.4917095,49.4059463 31.6763865,48.9336764 32.5889079,48.1492281 L32.8050314,48.3733562 L32.8050314,49.0057176 L36.8073185,53 L38,51.8073185 L34.0057176,47.8050314 L34.0057176,47.8050314 Z M29.2029731,47.8050314 C27.2098342,47.8050314 25.6009148,46.1961121 25.6009148,44.2029731 C25.6009148,42.2098342 27.2098342,40.6009148 29.2029731,40.6009148 C31.1961121,40.6009148 32.8050314,42.2098342 32.8050314,44.2029731 C32.8050314,46.1961121 31.1961121,47.8050314 29.2029731,47.8050314 L29.2029731,47.8050314 Z" id="Shape"></path>
            </g>
        </g>
    </g>
</svg>