<?xml version="1.0" encoding="UTF-8"?>
<svg width="16px" height="10px" viewBox="0 0 16 10" version="1.1" xmlns="http://www.w3.org/2000/svg" xmlns:xlink="http://www.w3.org/1999/xlink">
    <!-- Generator: Sketch 50.2 (55047) - http://www.bohemiancoding.com/sketch -->
    <title>Team</title>
    <desc>Created with Sketch.</desc>
    <defs></defs>
    <g id="Tasks" stroke="none" stroke-width="1" fill="none" fill-rule="evenodd">
        <g id="Tasks-Copy" transform="translate(-53.000000, -310.000000)" fill="#747474">
            <path d="M63.9090909,314.285714 C65.1163636,314.285714 66.0836364,313.328571 66.0836364,312.142857 C66.0836364,310.957143 65.1163636,310 63.9090909,310 C62.7018182,310 61.7272727,310.957143 61.7272727,312.142857 C61.7272727,313.328571 62.7018182,314.285714 63.9090909,314.285714 L63.9090909,314.285714 Z M58.0909091,314.285714 C59.2981818,314.285714 60.2654545,313.328571 60.2654545,312.142857 C60.2654545,310.957143 59.2981818,310 58.0909091,310 C56.8836364,310 55.9090909,310.957143 55.9090909,312.142857 C55.9090909,313.328571 56.8836364,314.285714 58.0909091,314.285714 L58.0909091,314.285714 Z M58.0909091,315.714286 C56.3963636,315.714286 53,316.55 53,318.214286 L53,320 L63.1818182,320 L63.1818182,318.214286 C63.1818182,316.55 59.7854545,315.714286 58.0909091,315.714286 L58.0909091,315.714286 Z M63.9090909,315.714286 C63.6981818,315.714286 63.4581818,315.728571 63.2036364,315.75 C64.0472727,316.35 64.6363636,317.157143 64.6363636,318.214286 L64.6363636,320 L69,320 L69,318.214286 C69,316.55 65.6036364,315.714286 63.9090909,315.714286 L63.9090909,315.714286 Z" id="Team"></path>
        </g>
    </g>
</svg>