<?xml version="1.0" encoding="UTF-8"?>
<svg width="13px" height="14px" viewBox="0 0 13 14" version="1.1" xmlns="http://www.w3.org/2000/svg" xmlns:xlink="http://www.w3.org/1999/xlink">
    <!-- Generator: sketchtool 50.2 (55047) - http://www.bohemiancoding.com/sketch -->
    <title>828708A2-C88F-4A63-AAC3-3750107394CC</title>
    <desc>Created with sketchtool.</desc>
    <defs></defs>
    <g id="Events" stroke="none" stroke-width="1" fill="none" fill-rule="evenodd">
        <g id="Add-vendors_Save" transform="translate(-478.000000, -983.000000)" fill="#BA68C8">
            <path d="M479.368421,989 L479.368421,993.666667 L481.421053,993.666667 L481.421053,989 L479.368421,989 L479.368421,989 Z M483.473684,989 L483.473684,993.666667 L485.526316,993.666667 L485.526316,989 L483.473684,989 L483.473684,989 Z M478,997 L491,997 L491,995 L478,995 L478,997 L478,997 Z M487.578947,989 L487.578947,993.666667 L489.631579,993.666667 L489.631579,989 L487.578947,989 L487.578947,989 Z M484.5,983 L478,986.333333 L478,987.666667 L491,987.666667 L491,986.333333 L484.5,983 L484.5,983 Z" id="Shape"></path>
        </g>
    </g>
</svg>