<?xml version="1.0" encoding="UTF-8"?>
<svg width="12px" height="12px" viewBox="0 0 12 12" version="1.1" xmlns="http://www.w3.org/2000/svg" xmlns:xlink="http://www.w3.org/1999/xlink">
    <!-- Generator: sketchtool 50.2 (55047) - http://www.bohemiancoding.com/sketch -->
    <title>4B92FBB7-BCC7-48E3-99B0-ECAE1FECCE6E</title>
    <desc>Created with sketchtool.</desc>
    <defs></defs>
    <g id="Events" stroke="none" stroke-width="1" fill="none" fill-rule="evenodd">
        <g id="Push-Changes" transform="translate(-1080.000000, -350.000000)" fill="#FFFFFF">
            <g id="Update-project" transform="translate(1064.000000, 340.000000)">
                <path d="M27.7,11.48 L26.7733333,10.36 C26.5866667,10.14 26.3133333,10 26,10 L18,10 C17.6866667,10 17.4133333,10.14 17.2333333,10.3666667 L16.3066667,11.48 C16.1133333,11.7133333 16,12.0066667 16,12.3333333 L16,20.6666667 C16,21.4 16.5933333,22 17.3333333,22 L26.6666667,22 C27.4,22 28,21.4 28,20.6666667 L28,12.3333333 C28,12.0066667 27.8866667,11.7133333 27.7,11.48 L27.7,11.48 Z M22,14.3333333 L25.6666667,18 L23.3333333,18 L23.3333333,19.3333333 L20.6666667,19.3333333 L20.6666667,18 L18.3333333,18 L22,14.3333333 L22,14.3333333 Z M17.4133333,11.3333333 L17.96,10.6666667 L25.96,10.6666667 L26.58,11.3333333 L17.4133333,11.3333333 L17.4133333,11.3333333 Z" id="Shape"></path>
            </g>
        </g>
    </g>
</svg>