<?xml version="1.0" encoding="UTF-8"?>
<svg width="32px" height="32px" viewBox="0 0 32 32" version="1.1" xmlns="http://www.w3.org/2000/svg" xmlns:xlink="http://www.w3.org/1999/xlink">
    <!-- Generator: sketchtool 50.2 (55047) - http://www.bohemiancoding.com/sketch -->
    <title>83ED176E-8B23-4B0B-B79D-E29E5C4F410B</title>
    <desc>Created with sketchtool.</desc>
    <defs></defs>
    <g id="Registration" stroke="none" stroke-width="1" fill="none" fill-rule="evenodd">
        <g id="Activity-selected" transform="translate(-562.000000, -310.000000)" fill="#BBBDBF" fill-rule="nonzero">
            <g id="np_market_1493971_000000" transform="translate(562.000000, 310.000000)">
                <path d="M0.400735601,22.9655887 L0.934157439,22.9655887 L0.934157439,31.5999995 C0.934157439,31.8218758 1.11352997,32 1.33345517,32 L30.7225667,32 C30.9424919,32 31.1218644,31.8218758 31.1218644,31.5999995 L31.1218644,22.9655887 L31.6007023,22.9655887 C31.8206275,22.9655887 32,22.7874645 32,22.5655882 L32,20.010905 C32,19.7890287 31.8206275,19.6109045 31.6007023,19.6109045 L30.1704178,19.6109045 L30.1704178,11.6404946 C31.2154598,11.4045583 32,10.4732931 32,9.3608117 C32,9.34362408 31.9984403,9.32643646 31.9968807,9.30924764 L30.8488997,0.348436436 C30.8239436,0.148436186 30.6539306,0 30.4527205,0 L1.70328393,0 C1.50363506,0 1.33517934,0.146876184 1.30866597,0.345312432 L0.0608605607,9.30452363 C0.0577408476,9.32327405 0.0561811906,9.34202368 0.0561811906,9.3607757 C0.0561811906,10.4732571 0.840721371,11.4045383 1.88576339,11.6404586 L1.88576339,19.6124685 L0.39929773,19.6124685 C0.179372526,19.6124685 0,19.7905927 0,20.012469 L0,22.5671522 C0.00155965693,22.7874645 0.179372526,22.9655887 0.400854991,22.9655887 L0.400735601,22.9655887 Z M30.3233089,31.199999 L1.73279283,31.199999 L1.73279283,22.9655887 L30.3233089,22.9655887 L30.3233089,31.199999 Z M29.6541658,10.8983736 C28.8664711,10.8983736 28.2207668,10.3077329 28.1256141,9.54993194 L31.1811601,9.54993194 C31.0875727,10.3077329 30.4418205,10.8983736 29.6541658,10.8983736 Z M24.2137342,8.74993094 L24.2137342,0.799921 L27.3082916,0.799921 L27.3082916,8.74993094 L24.2137342,8.74993094 Z M23.4151387,8.74993094 L20.3205813,8.74993094 L20.3205813,0.799921 L23.4151387,0.799921 L23.4151387,8.74993094 Z M19.5219859,8.74993094 L16.4321002,8.74993094 L16.4321002,0.799921 L19.5219859,0.799921 L19.5219859,8.74993094 Z M15.6335048,8.74993094 L12.5342756,8.74993094 L12.5342756,0.799921 L15.6335048,0.799921 L15.6335048,8.74993094 Z M11.7356801,8.74993094 L8.64112272,8.74993094 L8.64112272,0.799921 L11.7356801,0.799921 L11.7356801,8.74993094 Z M7.84252726,8.74993094 L4.73862628,8.74993094 L4.73862628,0.799921 L7.84252726,0.799921 L7.84252726,8.74993094 Z M7.82381018,9.54993194 C7.72866551,10.3077329 7.0844705,10.8983736 6.29525854,10.8983736 C5.5075639,10.8983736 4.86185954,10.3077329 4.76670689,9.54993194 L7.82381018,9.54993194 Z M11.716963,9.54993194 C11.6218184,10.3077329 10.9776234,10.8983736 10.1884114,10.8983736 C9.40071677,10.8983736 8.75501241,10.3077329 8.65985976,9.54993194 L11.716963,9.54993194 Z M15.6101159,9.54993194 C15.5149713,10.3077329 14.8707762,10.8983736 14.0815643,10.8983736 C13.2938696,10.8983736 12.6481653,10.3077329 12.5530126,9.54993194 L15.6101159,9.54993194 Z M19.5032688,9.54993194 C19.4081241,10.3077329 18.7639291,10.8983736 17.9747171,10.8983736 C17.1870225,10.8983736 16.5413181,10.3077329 16.4461655,9.54993194 L19.5032688,9.54993194 Z M23.3964217,9.54993194 C23.301277,10.3077329 22.657082,10.8983736 21.86787,10.8983736 C21.0801754,10.8983736 20.434471,10.3077329 20.3393184,9.54993194 L23.3964217,9.54993194 Z M27.2895745,9.54993194 C27.1944299,10.3077329 26.5502348,10.8983736 25.7610229,10.8983736 C24.9733282,10.8983736 24.3276239,10.3077329 24.2324712,9.54993194 L27.2895745,9.54993194 Z M31.1203571,8.74993094 L28.106897,8.74993094 L28.106897,0.799921 L30.1018284,0.799921 L31.1203571,8.74993094 Z M2.05108303,0.799921 L3.93996094,0.799921 L3.93996094,8.74993094 L0.943670707,8.74993094 L2.05108303,0.799921 Z M0.875031428,9.54993194 L3.93057745,9.54993194 C3.83543278,10.3077329 3.19123777,10.8983736 2.40202581,10.8983736 C1.61433117,10.8983736 0.968626815,10.3077329 0.875031428,9.54993194 Z M2.6843293,11.6796146 C3.37531402,11.5968025 3.97581788,11.213974 4.34860224,10.6639733 C4.76974156,11.2874141 5.48568239,11.6983346 6.29517868,11.6983346 C7.10467496,11.6983346 7.82061579,11.2874141 8.24175511,10.6639733 C8.66289443,11.2874141 9.37883526,11.6983346 10.1883315,11.6983346 C10.9978278,11.6983346 11.7137687,11.2874141 12.134908,10.6639733 C12.5560473,11.2874141 13.2719881,11.6983346 14.0814844,11.6983346 C14.8909807,11.6983346 15.6069215,11.2874141 16.0280608,10.6639733 C16.4492002,11.2874141 17.165141,11.6983346 17.9746373,11.6983346 C18.7841336,11.6983346 19.5000744,11.2874141 19.9212137,10.6639733 C20.342353,11.2874141 21.0582939,11.6983346 21.8677902,11.6983346 C22.6772864,11.6983346 23.3932273,11.2874141 23.8143666,10.6639733 C24.2355059,11.2874141 24.9514467,11.6983346 25.760943,11.6983346 C26.5704393,11.6983346 27.2863801,11.2874141 27.7075195,10.6639733 C28.0787426,11.213974 28.6792504,11.5967745 29.3717924,11.6796146 L29.3717924,19.6108245 L2.6843293,19.6108245 L2.6843293,11.6796146 Z M0.800123173,20.4108255 L31.2014545,20.4108255 L31.2014545,22.1655077 L0.800123173,22.1655077 L0.800123173,20.4108255 Z" id="Shape"></path>
            </g>
        </g>
    </g>
</svg>