<?xml version="1.0" encoding="UTF-8"?>
<svg width="14px" height="12px" viewBox="0 0 14 12" version="1.1" xmlns="http://www.w3.org/2000/svg" xmlns:xlink="http://www.w3.org/1999/xlink">
    <!-- Generator: sketchtool 50.2 (55047) - http://www.bohemiancoding.com/sketch -->
    <title>DBEE3EF6-5A72-499E-9701-ABDC8EA57668</title>
    <desc>Created with sketchtool.</desc>
    <defs></defs>
    <g id="Market-place" stroke="none" stroke-width="1" fill="none" fill-rule="evenodd">
        <g id="Projects-cardview" transform="translate(-530.000000, -135.000000)" fill="#747474">
            <g id="Group-4" transform="translate(254.000000, 119.000000)">
                <g id="Group-3" transform="translate(260.000000, 0.000000)">
                    <path d="M29.2222222,16 L16.7777778,16 L16.7777778,17.5 L29.2222222,17.5 L29.2222222,16 L29.2222222,16 Z M30,23.5 L30,22 L29.2222222,18.25 L16.7777778,18.25 L16,22 L16,23.5 L16.7777778,23.5 L16.7777778,28 L24.5555556,28 L24.5555556,23.5 L27.6666667,23.5 L27.6666667,28 L29.2222222,28 L29.2222222,23.5 L30,23.5 L30,23.5 Z M23,26.5 L18.3333333,26.5 L18.3333333,23.5 L23,23.5 L23,26.5 L23,26.5 Z" id="Shape"></path>
                </g>
            </g>
        </g>
    </g>
</svg>