<?xml version="1.0" encoding="UTF-8"?>
<svg width="46px" height="48px" viewBox="0 0 46 48" version="1.1" xmlns="http://www.w3.org/2000/svg" xmlns:xlink="http://www.w3.org/1999/xlink">
    <!-- Generator: sketchtool 50.2 (55047) - http://www.bohemiancoding.com/sketch -->
    <title>FB867B70-89E3-4B64-96A0-05A257D8EA40</title>
    <desc>Created with sketchtool.</desc>
    <defs></defs>
    <g id="Registration" stroke="none" stroke-width="1" fill="none" fill-rule="evenodd">
        <g id="Select-Acitivity" transform="translate(-839.000000, -297.000000)" fill="#BBBDBF" fill-rule="nonzero">
            <g id="np_ice-cream-stand_662595_000000" transform="translate(839.000000, 297.000000)">
                <polygon id="Shape" points="10.78125 22.2089552 14.375 22.2089552 14.375 25.0746269 10.78125 25.0746269"></polygon>
                <path d="M8.86009401,25.6937438 L8.86009401,26.2733365 L10.0625,26.2733365 L10.0625,22.2089552 L9.88631235,22.2089552 C9.82273953,22.2089552 9.76098481,22.2162456 9.70104353,22.227181 C9.54665439,22.2326489 9.39044716,22.2709234 9.2433211,22.3474715 C9.1216251,22.411263 8.13716711,22.9635045 7.13819227,24.4380086 C6.24453665,25.7539203 5.3581813,27.7970523 5.03125,30.8059701 L7.17092725,30.8059701 C7.47607398,28.2853343 8.20077713,26.686905 8.86012656,25.6935907 L8.86009401,25.6937438 Z" id="Shape"></path>
                <path d="M15.09375,26.5055431 L16.4197382,26.5055431 L16.4197382,25.8944929 C16.4838353,25.9870165 16.5499373,26.0833939 16.6140343,26.1874842 C16.6781314,26.2877156 16.7402234,26.3956646 16.8043205,26.5074627 L19.40625,26.5074627 C19.0657358,25.7402821 18.6931833,25.0964662 18.3166004,24.5663926 C17.2169516,23.0069637 16.1293017,22.4229057 15.9951082,22.3554499 C15.8328606,22.274493 15.6606037,22.2340145 15.4903466,22.2282312 C15.4242446,22.2166655 15.3561428,22.2089552 15.2880409,22.2089552 L15.0957498,22.2089552 L15.09375,26.5055431 Z" id="Shape"></path>
                <path d="M15.8125,18.2676787 C15.8125,20.0486059 14.3658308,21.4925373 12.5791062,21.4925373 C10.7923817,21.4925373 9.34375,20.0486059 9.34375,18.2676787 C9.34375,16.4867514 10.7923817,15.0447761 12.5791062,15.0447761 C14.3658308,15.0447761 15.8125,16.4867514 15.8125,18.2676787" id="Shape"></path>
                <path d="M23.958663,13.9384487 L35.8683505,13.9384487 C36.6245234,13.9384487 37.2366109,13.3275739 37.2366109,12.5727922 C37.2366109,13.3275261 37.8486505,13.9384487 38.6048713,13.9384487 L44.6279963,13.9384487 C45.3841692,13.9384487 45.9962567,13.3275739 45.9962567,12.5727922 L46,9.83774873 L23.9583333,0.934079418 L23.9583333,0 L22.0416667,0 L22.0416667,0.934079418 L0,9.83774873 L0,12.5708792 C0,13.325613 0.612039583,13.9365357 1.36826042,13.9365357 L7.39138542,13.9365357 C8.14755833,13.9365357 8.75964583,13.3256609 8.75964583,12.5708792 C8.75964583,13.325613 9.37355417,13.9365357 10.1279062,13.9365357 L22.0395104,13.9365357 L22.0395104,26.5074627 L23.9561771,26.5074627 L23.958663,13.9384487 Z" id="Shape"></path>
                <path d="M38.4846231,48 L38.4846231,46.2377171 L39.53125,46.2377171 L39.53125,27.9402985 L30.1875,27.9402985 L30.1875,46.2377171 L31.2341269,46.2377171 L31.2341269,48 L32.3494227,48 L32.3494227,46.2377171 L37.3690345,46.2377171 L37.3690345,48 L38.4846231,48 Z M31.5830839,29.2946016 L38.1356661,29.2946016 L38.1356661,44.8808523 L31.5830839,44.8808523 L31.5830839,29.2946016 Z" id="Shape"></path>
                <path d="M25.6065969,27.2238806 L8.54014466,27.2238806 L8.54014466,31.9336191 L8.40388064,31.9336191 L3.62536959,31.9317255 L2.875,31.9317255 L2.875,44.9510392 L3.76165273,44.9529328 L3.76165273,45.5570425 C3.24834507,45.7066471 2.875,46.1857801 2.875,46.7539176 C2.875,47.4432553 3.42562783,48 4.1032207,48 C4.78267718,48 5.33144139,47.4413645 5.33144139,46.7539176 C5.33144139,46.1857801 4.95625182,45.7066519 4.44478867,45.5570425 L4.44478867,44.9529328 L9.15797747,44.9529328 L9.15797747,46.2880245 C9.15797747,47.2329974 9.91393792,47.9999515 10.8453653,47.9999515 C11.7767927,47.9999515 12.5327531,47.2329974 12.5327531,46.2880245 L12.5327531,44.9529328 L13.1655235,44.9529328 L13.1655235,46.2880245 C13.1655235,47.2329974 13.921484,47.9999515 14.8529114,47.9999515 C15.7843387,47.9999515 16.5402992,47.2329974 16.5402992,46.2880245 L16.5421662,44.9529328 L25.7427113,44.9529328 L25.7427113,45.5570425 C25.2294037,45.7066471 24.8560586,46.1857801 24.8560586,46.7539176 C24.8560586,47.4432553 25.4066864,48 26.0842793,48 C26.7637358,48 27.3125,47.4413645 27.3125,46.7539176 C27.3125,46.1857801 26.9373104,45.7066519 26.4258473,45.5570425 L26.4258473,44.9529328 L27.3125,44.9529328 L27.3125,31.9336191 L25.6064282,31.9317255 L25.6065969,27.2238806 Z" id="Shape"></path>
                <polygon id="Shape" points="32.34375 30.0895522 37.375 30.0895522 37.375 30.8059701 32.34375 30.8059701"></polygon>
                <polygon id="Shape" points="32.34375 31.5223881 37.375 31.5223881 37.375 32.238806 32.34375 32.238806"></polygon>
                <polygon id="Shape" points="32.34375 33.6716418 37.375 33.6716418 37.375 34.3880597 32.34375 34.3880597"></polygon>
                <polygon id="Shape" points="32.34375 35.1044776 37.375 35.1044776 37.375 35.8208955 32.34375 35.8208955"></polygon>
                <polygon id="Shape" points="32.34375 36.5373134 37.375 36.5373134 37.375 37.2537313 32.34375 37.2537313"></polygon>
                <polygon id="Shape" points="32.34375 38.6865672 37.375 38.6865672 37.375 39.4029851 32.34375 39.4029851"></polygon>
                <polygon id="Shape" points="32.34375 40.119403 37.375 40.119403 37.375 40.8358209 32.34375 40.8358209"></polygon>
            </g>
        </g>
    </g>
</svg>