<?xml version="1.0" encoding="UTF-8"?>
<svg width="14px" height="15px" viewBox="0 0 14 15" version="1.1" xmlns="http://www.w3.org/2000/svg" xmlns:xlink="http://www.w3.org/1999/xlink">
    <!-- Generator: Sketch 51 (57462) - http://www.bohemiancoding.com/sketch -->
    <title>venue</title>
    <desc>Created with Sketch.</desc>
    <defs></defs>
    <g id="Events" stroke="none" stroke-width="1" fill="none" fill-rule="evenodd">
        <g id="Push-Changes" transform="translate(-477.000000, -900.000000)">
            <rect fill="#FAFAFA" x="0" y="0" width="1440" height="1731"></rect>
            <path d="M486.333333,907.105263 L486.333333,902.368421 L484,900 L481.666667,902.368421 L481.666667,903.947368 L477,903.947368 L477,915 L491,915 L491,907.105263 L486.333333,907.105263 L486.333333,907.105263 Z M480.111111,913.421053 L478.555556,913.421053 L478.555556,911.842105 L480.111111,911.842105 L480.111111,913.421053 L480.111111,913.421053 Z M480.111111,910.263158 L478.555556,910.263158 L478.555556,908.684211 L480.111111,908.684211 L480.111111,910.263158 L480.111111,910.263158 Z M480.111111,907.105263 L478.555556,907.105263 L478.555556,905.526316 L480.111111,905.526316 L480.111111,907.105263 L480.111111,907.105263 Z M484.777778,913.421053 L483.222222,913.421053 L483.222222,911.842105 L484.777778,911.842105 L484.777778,913.421053 L484.777778,913.421053 Z M484.777778,910.263158 L483.222222,910.263158 L483.222222,908.684211 L484.777778,908.684211 L484.777778,910.263158 L484.777778,910.263158 Z M484.777778,907.105263 L483.222222,907.105263 L483.222222,905.526316 L484.777778,905.526316 L484.777778,907.105263 L484.777778,907.105263 Z M484.777778,903.947368 L483.222222,903.947368 L483.222222,902.368421 L484.777778,902.368421 L484.777778,903.947368 L484.777778,903.947368 Z M489.444444,913.421053 L487.888889,913.421053 L487.888889,911.842105 L489.444444,911.842105 L489.444444,913.421053 L489.444444,913.421053 Z M489.444444,910.263158 L487.888889,910.263158 L487.888889,908.684211 L489.444444,908.684211 L489.444444,910.263158 L489.444444,910.263158 Z" id="venue" fill="#7986CB"></path>
        </g>
    </g>
</svg>