<?xml version="1.0" encoding="UTF-8"?>
<svg width="16px" height="16px" viewBox="0 0 16 16" version="1.1" xmlns="http://www.w3.org/2000/svg" xmlns:xlink="http://www.w3.org/1999/xlink">
    <!-- Generator: sketchtool 50.2 (55047) - http://www.bohemiancoding.com/sketch -->
    <title>1E2BF4E0-0291-4A6B-A0B7-A6B551C3A0C7</title>
    <desc>Created with sketchtool.</desc>
    <defs></defs>
    <g id="Guests" stroke="none" stroke-width="1" fill="none" fill-rule="evenodd">
        <g id="Guests-Copy" transform="translate(-960.000000, -434.000000)" fill="#747474">
            <g id="Group-7" transform="translate(296.000000, 356.000000)">
                <g id="Group-2" transform="translate(0.000000, 46.000000)">
                    <g id="Group-6" transform="translate(616.000000, 24.000000)">
                        <g id="Group-5">
                            <g id="Group-12" transform="translate(40.000000, 0.000000)">
                                <g id="Group-4" transform="translate(8.000000, 8.000000)">
                                    <path d="M7.992,0 C3.576,0 0,3.584 0,8 C0,12.416 3.576,16 7.992,16 C12.416,16 16,12.416 16,8 C16,3.584 12.416,0 7.992,0 L7.992,0 Z M8,14.4 C4.464,14.4 1.6,11.536 1.6,8 C1.6,4.464 4.464,1.6 8,1.6 C11.536,1.6 14.4,4.464 14.4,8 C14.4,11.536 11.536,14.4 8,14.4 L8,14.4 Z" id="Shape"></path>
                                    <polygon id="Shape" points="8.25 4 7 4 7 8.59016393 11.375 11 12 10.0590164 8.25 8.01639344"></polygon>
                                </g>
                            </g>
                        </g>
                    </g>
                </g>
            </g>
        </g>
    </g>
</svg>