<?xml version="1.0" encoding="UTF-8"?>
<svg width="100pt" height="100pt" version="1.1" viewBox="0 0 100 100" xmlns="http://www.w3.org/2000/svg">
 <path d="m94.102 71.199c-5.9023-2.5-21.102-0.19922-31.102 1.3008-3.5 0.5-6.6992 1-7.6016 1-3.3984-0.19922-8.3008-1.5-10.199-2.1992-1-0.39844-5.3984-2.3984-8.3008-3.8008h-0.10156-0.10156c-1.6992-0.80078-3-1.3984-3.5-1.6016-0.69922-0.30078-4.8008-3.1992-8.3984-5.8008 0 0-0.10156 0-0.10156-0.10156l-15.695-9.6953c1.6992-1.3008 4.5-2.8984 7.1016-2 1.8984 0.69922 5.8008 2.5 6.3984 2.6992l14.699 8.6016c0.89844 2.3984 2 4.6016 3.1016 5.6016 1.8008 1.5 5.3984 3.3984 5.5 3.5 0.19922 0.10156 0.5 0.19922 0.69922 0.19922 0.5 0 1.1016-0.30078 1.3008-0.80078 0.39844-0.69922 0.10156-1.6016-0.60156-2 0 0-3.3984-1.8984-5-3.1992-0.80078-0.60156-1.6016-2.3984-2.3008-4.6016 0-0.10156 0-0.19922-0.10156-0.19922-1.1992-3.3984-2.1016-7.6016-2.1016-9 0-1.3984 3.6992-10.199 5.3984-12.199 0.80078-0.60156 5.5-0.60156 10.301 0 0 0.39844-0.10156 1-0.39844 1.5-0.80078 1.3008-2.6992 2.1016-5.5 2.5-0.5 0.10156-0.89844 0.30078-1.1016 0.69922-3 5 0 12.602 0.10156 12.898 0.10156 0.30078 0.39844 0.60156 0.69922 0.80078l6.3008 3.3008c0.30078 0.19922 0.69922 0.19922 1.1016 0.10156l7.1016-2c0.30078-0.10156 0.5-0.30078 0.69922-0.5l7-8.5c0.39844-0.5 0.5-1.1992 0.10156-1.8008-0.19922-0.30078-4.5-6.8984-9.6992-11.602-2.3008-2.1016-5.3984-2.1992-8.1992-2.3984-4-0.19922-6.3008-0.5-7-3.8984 2.1016-0.5 7.8984-1.1992 12.801-1.6016 0.10156 0 5.5-0.60156 12.5 6.3008 7.5 7.3984 19.102 14 22.898 16 0.69922 0.39844 1.6016 0.10156 2-0.69922 0.39844-0.80078 0.10156-1.6016-0.69922-2-3.6992-1.8984-14.898-8.3008-22.102-15.398-8.1016-8-14.699-7.1992-14.898-7.1016-14.102 1.1992-14.898 2.1992-15.301 2.6992-0.30078 0.39844-0.39844 0.80078-0.39844 1.1992 0.39844 3.1992 1.6992 5.1016 3.3008 6.1016-2.3008 0.19922-3.3008 0.80078-3.8008 1.3984-1.8008 2.1992-6.1992 11.801-6.1992 14.199 0 1 0.39844 3.5 1.1992 6.3984l-12-7s-0.10156 0-0.10156-0.10156c-0.19922-0.10156-4.5-2.1016-6.6016-2.8984-5.8984-2.1992-11.5 3.6992-11.801 4-0.29688 0.30078-0.39844 0.69922-0.39844 1.1992s0.30078 0.80078 0.69922 1.1016l9.1992 5.6992h-0.80078c-6.5-0.30078-8.8008 5.1016-9.1016 8-0.10156 0.80078 0.5 1.6016 1.3008 1.6992l12.699 1.3984c-1.8008 2.1016-2.1016 5-2 6.6016 0.10156 0.80078 0.69922 1.3984 1.5 1.3984h0.10156l20.5-1.1016s4.8984-0.30078 7.6016-0.5c2.3984 0.69922 5.8008 1.3984 8.5 1.6016h0.19922c1.1992 0 3.6992-0.39844 8-1 9.1016-1.3984 24.398-3.6992 29.5-1.6016 0.80078 0.30078 1.6016 0 2-0.80078 0.30078-0.79687-0.097657-1.6953-0.79688-1.9961zm-38.5-31.301c1-1.6016 0.89844-3.3008 0.80078-4.1992 0.5 0.19922 1 0.5 1.3984 0.89844 3.8008 3.5 7.1992 8.1016 8.6016 10.102l-6 7.3008-6 1.6992-5.1992-2.8008c-0.69922-2-1.6992-6.1992-0.39844-9.1016 3.2969-0.59766 5.5938-1.8984 6.7969-3.8984zm-41.602 20.5c1.3984 0.10156 4.1992 0.19922 6.1992 0.30078l3 1.8008c1.1016 0.80078 3.6992 2.6992 5.8008 4.1992-1.1016-0.10156-1.8008-0.19922-1.8008-0.19922l-18.898-2.1992c0.59766-1.6992 2.0977-4.1016 5.6992-3.9023zm25 12.102l-18.801 1c0.19922-1.5 1-3.6016 3.3008-4.3984l3.3008 0.39844c0.30078 0 7 0.69922 8.8984 0.89844 1.6992 0.80078 3.1992 1.5 4.6016 2.1016h-1.3008z"/>
</svg>
